<?xml version="1.0" encoding="UTF-8" standalone="no"?>
<!-- Generator: Adobe Illustrator 17.0.1, SVG Export Plug-In . SVG Version: 6.00 Build 0)  -->

<svg
   xmlns:dc="http://purl.org/dc/elements/1.1/"
   xmlns:cc="http://creativecommons.org/ns#"
   xmlns:rdf="http://www.w3.org/1999/02/22-rdf-syntax-ns#"
   xmlns:svg="http://www.w3.org/2000/svg"
   xmlns="http://www.w3.org/2000/svg"
   xmlns:xlink="http://www.w3.org/1999/xlink"
   xmlns:sodipodi="http://sodipodi.sourceforge.net/DTD/sodipodi-0.dtd"
   xmlns:inkscape="http://www.inkscape.org/namespaces/inkscape"
   version="1.1"
   x="0px"
   y="0px"
   width="86px"
   height="86px"
   viewBox="0 0 86 86"
   enable-background="new 0 0 86 86"
   xml:space="preserve"
   id="svg2"
   inkscape:version="0.48.4 r9939"
   sodipodi:docname="quantofa.svg"
   inkscape:export-filename="/home/mikelima/src/sailfish-work/quantofa/quantofa.png"
   inkscape:export-xdpi="90.739998"
   inkscape:export-ydpi="90.739998"><metadata
     id="metadata35"><rdf:RDF><cc:Work
         rdf:about=""><dc:format>image/svg+xml</dc:format><dc:type
           rdf:resource="http://purl.org/dc/dcmitype/StillImage" /><dc:title></dc:title></cc:Work></rdf:RDF></metadata><defs
     id="defs33"><linearGradient
       id="linearGradient4229"><stop
         id="stop4231"
         offset="0"
         style="stop-color:#ffffff;stop-opacity:0;" /><stop
         style="stop-color:#ffffff;stop-opacity:1;"
         offset="0.5"
         id="stop4235" /><stop
         id="stop4233"
         offset="1"
         style="stop-color:#000000;stop-opacity:0;" /></linearGradient><linearGradient
       inkscape:collect="always"
       id="linearGradient4189"><stop
         style="stop-color:#000000;stop-opacity:1;"
         offset="0"
         id="stop4191" /><stop
         style="stop-color:#000000;stop-opacity:0;"
         offset="1"
         id="stop4193" /></linearGradient><linearGradient
       id="linearGradient4171"
       gradientUnits="userSpaceOnUse"
       x1="85.1792"
       y1="0.8064"
       x2="12.7851"
       y2="73.2005"><stop
         offset="0"
         style="stop-color:#c4c4c4;stop-opacity:0;"
         id="stop4173" /><stop
         id="stop4175"
         style="stop-color:#c9c9c9;stop-opacity:0.24705882;"
         offset="0.5" /><stop
         id="stop4177"
         style="stop-color:#cfcfcf;stop-opacity:0.49803922;"
         offset="0.75" /><stop
         offset="1"
         style="stop-color:#DADADA"
         id="stop4179" /></linearGradient><linearGradient
       id="linearGradient4121"><stop
         id="stop4123"
         offset="0"
         style="stop-color:#ffffff;stop-opacity:1;" /><stop
         style="stop-color:#000000;stop-opacity:0;"
         offset="0.52954173"
         id="stop4127" /><stop
         id="stop4125"
         offset="1"
         style="stop-color:#000000;stop-opacity:0;" /></linearGradient><linearGradient
       y2="73.2005"
       x2="12.7851"
       y1="0.8064"
       x1="85.1792"
       gradientUnits="userSpaceOnUse"
       id="linearGradient4097"><stop
         id="stop4099"
         style="stop-color:#ffffff;stop-opacity:0;"
         offset="0" /><stop
         offset="0.0078125"
         style="stop-color:#f0f0f0;stop-opacity:0.00392157;"
         id="stop4199" /><stop
         offset="0.015625"
         style="stop-color:#e1e1e1;stop-opacity:0.01176471;"
         id="stop4197" /><stop
         offset="0.03125"
         style="stop-color:#c4c4c4;stop-opacity:0.02745098;"
         id="stop4185" /><stop
         offset="0.0625"
         style="stop-color:#c5c5c5;stop-opacity:0.05882353;"
         id="stop4183" /><stop
         offset="0.125"
         style="stop-color:#c6c6c6;stop-opacity:0.12156863;"
         id="stop4181" /><stop
         offset="0.25"
         style="stop-color:#c9c9c9;stop-opacity:0.24705882;"
         id="stop4165" /><stop
         offset="0.5"
         style="stop-color:#cfcfcf;stop-opacity:0.49803922;"
         id="stop4163" /><stop
         id="stop4101"
         style="stop-color:#DADADA"
         offset="1" /></linearGradient><filter
       inkscape:collect="always"
       id="filter3967"
       x="-0.46080245"
       width="1.9216049"
       y="-0.56373186"
       height="2.1274637"><feGaussianBlur
         inkscape:collect="always"
         stdDeviation="2.842515"
         id="feGaussianBlur3969" /></filter><linearGradient
       id="linearGradient4010"
       gradientUnits="userSpaceOnUse"
       x1="85.1792"
       y1="0.8064"
       x2="12.7851"
       y2="73.2005"><stop
         offset="0"
         style="stop-color:#4d4d4d;stop-opacity:1;"
         id="stop4012" /><stop
         offset="1"
         style="stop-color:#DADADA"
         id="stop4014" /></linearGradient><linearGradient
       inkscape:collect="always"
       xlink:href="#SVGID_1_"
       id="linearGradient4088"
       gradientUnits="userSpaceOnUse"
       x1="85.1792"
       y1="0.8064"
       x2="12.7851"
       y2="73.2005" /><linearGradient
       inkscape:collect="always"
       xlink:href="#SVGID_1_"
       id="linearGradient3072"
       gradientUnits="userSpaceOnUse"
       x1="85.1792"
       y1="0.8064"
       x2="12.7851"
       y2="73.2005" /><linearGradient
       inkscape:collect="always"
       xlink:href="#linearGradient4189"
       id="linearGradient3083"
       gradientUnits="userSpaceOnUse"
       x1="40"
       y1="31"
       x2="60"
       y2="12" /><linearGradient
       inkscape:collect="always"
       xlink:href="#linearGradient4097"
       id="linearGradient3089"
       gradientUnits="userSpaceOnUse"
       x1="30"
       y1="56"
       x2="20"
       y2="66" /><linearGradient
       y2="73.2005"
       x2="12.7851"
       y1="0.8064"
       x1="85.179199"
       gradientUnits="userSpaceOnUse"
       id="SVGID_1_"><stop
         id="stop7"
         style="stop-color:#4d4d4d;stop-opacity:1;"
         offset="0" /><stop
         id="stop9"
         style="stop-color:#DADADA"
         offset="1" /></linearGradient><linearGradient
       inkscape:collect="always"
       xlink:href="#SVGID_1_"
       id="linearGradient3140"
       gradientUnits="userSpaceOnUse"
       x1="74"
       y1="12"
       x2="12.7851"
       y2="73.2005" /><linearGradient
       inkscape:collect="always"
       xlink:href="#linearGradient4189"
       id="linearGradient3925"
       x1="74"
       y1="36"
       x2="30"
       y2="86"
       gradientUnits="userSpaceOnUse" /><filter
       inkscape:collect="always"
       id="filter4181"
       x="-0.21808967"
       width="1.4361793"
       y="-0.26680434"
       height="1.5336087"><feGaussianBlur
         inkscape:collect="always"
         stdDeviation="1.3453122"
         id="feGaussianBlur4183" /></filter><filter
       inkscape:collect="always"
       id="filter4189"
       x="-0.32931546"
       width="1.6586309"
       y="-0.40287463"
       height="1.8057493"><feGaussianBlur
         inkscape:collect="always"
         stdDeviation="2.0314218"
         id="feGaussianBlur4191" /></filter><linearGradient
       inkscape:collect="always"
       xlink:href="#linearGradient4229"
       id="linearGradient4227"
       x1="60"
       y1="12"
       x2="45"
       y2="31"
       gradientUnits="userSpaceOnUse" /><filter
       inkscape:collect="always"
       id="filter4332"><feGaussianBlur
         inkscape:collect="always"
         stdDeviation="0.2032785"
         id="feGaussianBlur4334" /></filter></defs><sodipodi:namedview
     pagecolor="#ffffff"
     bordercolor="#666666"
     borderopacity="1"
     objecttolerance="10"
     gridtolerance="10"
     guidetolerance="10"
     inkscape:pageopacity="0"
     inkscape:pageshadow="2"
     inkscape:window-width="1600"
     inkscape:window-height="880"
     id="namedview31"
     showgrid="true"
     showguides="true"
     inkscape:guide-bbox="true"
     inkscape:zoom="5.8025479"
     inkscape:cx="3.923761"
     inkscape:cy="35.357346"
     inkscape:window-x="-3"
     inkscape:window-y="-3"
     inkscape:window-maximized="1"
     inkscape:current-layer="svg2"><inkscape:grid
       type="xygrid"
       id="grid3012" /><sodipodi:guide
       orientation="1,0"
       position="12.063666,22.231613"
       id="guide3014" /><sodipodi:guide
       orientation="0,1"
       position="10,74"
       id="guide3016" /><sodipodi:guide
       orientation="0,1"
       position="-3,12"
       id="guide3018" /><sodipodi:guide
       orientation="1,0"
       position="74,44"
       id="guide3020" /></sodipodi:namedview><g
     id="Layer_2"
     display="none" /><rect
     ry="0.99999905"
     y="12.000001"
     x="12"
     height="19.010096"
     width="62.301304"
     id="rect4187"
     style="opacity:0.66799999;fill:url(#linearGradient3083);fill-opacity:1;stroke:#000000;stroke-width:0.30000001;stroke-linejoin:bevel;stroke-miterlimit:4;stroke-opacity:1;stroke-dasharray:none" /><path
     inkscape:connector-curvature="0"
     style="fill:url(#linearGradient3140)"
     d="m 85.603,1.819 c 0,-0.785 -0.636,-1.422 -1.422,-1.422 H 1.722 C 0.937,0.397 0.3,1.034 0.3,1.819 v 41.23 C 0.3,66.605 19.396,85.7 42.951,85.7 h 41.23 c 0.785,0 1.422,-0.696 1.422,-1.481 v -82.4 z"
     id="path3927" /><path
     inkscape:connector-curvature="0"
     style="fill:url(#linearGradient4088)"
     d="m 85.603,1.819 c 0,-0.785 -0.636,-1.422 -1.422,-1.422 H 1.722 C 0.937,0.397 0.3,1.034 0.3,1.819 v 41.23 C 0.3,66.605 19.396,85.7 42.951,85.7 h 41.23 c 0.785,0 1.422,-0.696 1.422,-1.481 v -82.4 z"
     id="path4018" /><path
     id="path4226"
     d="m 12.96875,36.0625 c -0.553999,0 -1,0.446001 -1,1 l 0,7.90625 c 0,0.553999 0.446001,1 1,1 l 7.71875,0 c 0.554,0 1,-0.446001 1,-1 l 0,-7.90625 c 0,-0.553999 -0.446,-1 -1,-1 l -7.71875,0 z m 13.0625,0 c -0.553999,0 -1,0.446001 -1,1 l 0,7.90625 c 0,0.553999 0.446001,1 1,1 l 7.71875,0 c 0.554,0 1,-0.446001 1,-1 l 0,-7.90625 c 0,-0.553999 -0.446,-1 -1,-1 l -7.71875,0 z m 13.09375,0 c -0.554,0 -1,0.446001 -1,1 l 0,7.90625 c 0,0.553999 0.446,1 1,1 l 7.6875,0 c 0.553999,0 1,-0.446001 1,-1 l 0,-7.90625 c 0,-0.553999 -0.446001,-1 -1,-1 l -7.6875,0 z m 13.0625,0 c -0.554,0 -1,0.446001 -1,1 l 0,7.90625 c 0,0.553999 0.446,1 1,1 l 7.71875,0 c 0.553999,0 1,-0.446001 1,-1 l 0,-7.90625 c 0,-0.553999 -0.446001,-1 -1,-1 l -7.71875,0 z m 13.09375,0 c -0.554,0 -1,0.446001 -1,1 l 0,7.90625 c 0,0.553999 0.446,1 1,1 l 7.6875,0 c 0.553999,0 1,-0.446001 1,-1 l 0,-7.90625 c 0,-0.553999 -0.446001,-1 -1,-1 l -7.6875,0 z M 12.96875,51 c -0.553999,0 -1,0.446 -1,1 l 0,7.90625 c 0,0.554 0.446001,1 1,1 l 7.71875,0 c 0.554,0 1,-0.446 1,-1 l 0,-7.90625 c 0,-0.554 -0.446,-1 -1,-1 l -7.71875,0 z m 13.0625,0 c -0.553999,0 -1,0.446 -1,1 l 0,7.90625 c 0,0.554 0.446001,1 1,1 l 7.71875,0 c 0.554,0 1,-0.446 1,-1 L 34.75,52 c 0,-0.554 -0.446,-1 -1,-1 l -7.71875,0 z M 39.125,51 c -0.554,0 -1,0.446 -1,1 l 0,7.90625 c 0,0.554 0.446,1 1,1 l 7.6875,0 c 0.553999,0 1,-0.446 1,-1 l 0,-7.90625 c 0,-0.554 -0.446001,-1 -1,-1 l -7.6875,0 z m 13.0625,0 c -0.554,0 -1,0.446 -1,1 l 0,7.90625 c 0,0.554 0.446,1 1,1 l 7.71875,0 c 0.553999,0 1,-0.446 1,-1 l 0,-7.90625 c 0,-0.554 -0.446001,-1 -1,-1 l -7.71875,0 z m 13.09375,0 c -0.554,0 -1,0.446 -1,1 l 0,7.90625 c 0,0.554 0.446,1 1,1 l 7.6875,0 c 0.553999,0 1,-0.446 1,-1 l 0,-7.90625 c 0,-0.554 -0.446001,-1 -1,-1 l -7.6875,0 z m -52.1875,14.9375 c -0.554,0 -1,0.446001 -1,1 l 0,5.5625 c 1.139646,1.193455 2.354569,2.31992 3.625,3.375 l 18.03125,0 c 0.554,0 1,-0.446001 1,-1 l 0,-7.9375 c 0,-0.553999 -0.446,-1 -1,-1 l -20.65625,0 z m 26.03125,0 c -0.554,0 -1,0.446001 -1,1 l 0,7.9375 c 0,0.553999 0.446,1 1,1 l 7.6875,0 c 0.553999,0 1,-0.446001 1,-1 l 0,-7.9375 c 0,-0.553999 -0.446001,-1 -1,-1 l -7.6875,0 z m 13.0625,0 c -0.554,0 -1,0.446001 -1,1 l 0,7.9375 c 0,0.553999 0.446,1 1,1 l 7.71875,0 c 0.553999,0 1,-0.446001 1,-1 l 0,-7.9375 c 0,-0.553999 -0.446001,-1 -1,-1 l -7.71875,0 z m 13.09375,0 c -0.554,0 -1,0.446001 -1,1 l 0,7.9375 c 0,0.553999 0.446,1 1,1 l 7.6875,0 c 0.553999,0 1,-0.446001 1,-1 l 0,-7.9375 c 0,-0.553999 -0.446001,-1 -1,-1 l -7.6875,0 z m -39.25,14.9375 c -0.507832,0 -0.902763,0.385818 -0.96875,0.875 3.056707,1.415716 6.290854,2.494921 9.6875,3.15625 l 0,-3.03125 c 0,-0.554 -0.446,-1 -1,-1 l -7.71875,0 z m 13.09375,0 c -0.554,0 -1,0.446 -1,1 l 0,3.53125 c 1.587003,0.179075 3.177643,0.28125 4.8125,0.28125 l 4.875,0 0,-3.8125 c 0,-0.554 -0.446001,-1 -1,-1 l -7.6875,0 z m 13.0625,0 c -0.554,0 -1,0.446 -1,1 l 0,3.8125 9.71875,0 0,-3.8125 c 0,-0.554 -0.446001,-1 -1,-1 l -7.71875,0 z m 13.09375,0 c -0.554,0 -1,0.446 -1,1 l 0,3.8125 9.6875,0 0,-3.8125 c 0,-0.554 -0.446001,-1 -1,-1 l -7.6875,0 z"
     style="opacity:0.33000003999999999;fill:url(#linearGradient3925);fill-opacity:1;stroke:none;stroke-width:0.30000000999999998;stroke-miterlimit:4;stroke-opacity:1;stroke-dasharray:none"
     inkscape:connector-curvature="0" /><g
     id="g4206"><rect
       style="opacity:0.66799999;fill:#000000;fill-opacity:1;stroke:#000000;stroke-width:0.30000001;stroke-linejoin:bevel;stroke-miterlimit:4;stroke-opacity:1;stroke-dasharray:none"
       id="rect3790"
       width="62.301304"
       height="19.010096"
       x="12"
       y="12.000001"
       ry="0.99999905" /><g
       id="g4193"><g
         style="font-size:16px;font-style:normal;font-weight:bold;line-height:125%;letter-spacing:0px;word-spacing:0px;fill:#ff0000;fill-opacity:1;stroke:none;font-family:Sans;-inkscape-font-specification:Sans Bold;opacity:1;"
         id="g3996"><path
           d="m 22.359375,21.15625 c -7e-6,-1.458326 -0.138028,-2.484367 -0.414063,-3.078125 -0.27084,-0.598949 -0.729172,-0.898428 -1.375,-0.898438 -0.645838,10e-6 -1.106775,0.299489 -1.382812,0.898438 -0.276046,0.593758 -0.414066,1.619799 -0.414063,3.078125 -3e-6,1.473963 0.138017,2.513024 0.414063,3.117187 0.276037,0.604169 0.736974,0.906252 1.382812,0.90625 0.640619,2e-6 1.098952,-0.302081 1.375,-0.90625 0.276035,-0.604163 0.414056,-1.643224 0.414063,-3.117187 m 3.007812,0.02344 c -10e-6,1.932296 -0.416676,3.424482 -1.25,4.476563 -0.833341,1.046875 -2.015632,1.570312 -3.546875,1.570312 -1.536462,0 -2.721357,-0.523437 -3.554687,-1.570312 -0.833335,-1.052081 -1.250001,-2.544267 -1.25,-4.476563 -10e-7,-1.937492 0.416665,-3.429678 1.25,-4.476562 0.83333,-1.052072 2.018225,-1.578113 3.554687,-1.578125 1.531243,1.2e-5 2.713534,0.526053 3.546875,1.578125 0.833324,1.046884 1.24999,2.53907 1.25,4.476562"
           id="path3998"
           inkscape:connector-curvature="0" /><path
           d="m 27.757812,23.976562 2.8125,0 0,3.023438 -2.8125,0 0,-3.023438"
           id="path4000"
           inkscape:connector-curvature="0" /></g><text
         sodipodi:linespacing="125%"
         id="text3924"
         y="27"
         x="15"
         style="font-size:16px;font-style:normal;font-weight:bold;line-height:125%;letter-spacing:0px;word-spacing:0px;fill:#ffaaaa;fill-opacity:1;stroke:none;font-family:Sans;-inkscape-font-specification:Sans Bold"
         xml:space="preserve"><tspan
           y="27"
           x="15"
           id="tspan3926"
           sodipodi:role="line">0.</tspan></text>
<g
         id="g4034"
         style="font-size:16px;font-style:normal;font-weight:bold;line-height:125%;letter-spacing:0px;word-spacing:0px;fill:#ff0000;fill-opacity:1;stroke:none;font-family:Sans;-inkscape-font-specification:Sans Bold;opacity:1;filter:url(#filter4181)"><path
           inkscape:connector-curvature="0"
           id="path4036"
           d="m 22.359375,21.15625 c -7e-6,-1.458326 -0.138028,-2.484367 -0.414063,-3.078125 -0.27084,-0.598949 -0.729172,-0.898428 -1.375,-0.898438 -0.645838,10e-6 -1.106775,0.299489 -1.382812,0.898438 -0.276046,0.593758 -0.414066,1.619799 -0.414063,3.078125 -3e-6,1.473963 0.138017,2.513024 0.414063,3.117187 0.276037,0.604169 0.736974,0.906252 1.382812,0.90625 0.640619,2e-6 1.098952,-0.302081 1.375,-0.90625 0.276035,-0.604163 0.414056,-1.643224 0.414063,-3.117187 m 3.007812,0.02344 c -10e-6,1.932296 -0.416676,3.424482 -1.25,4.476563 -0.833341,1.046875 -2.015632,1.570312 -3.546875,1.570312 -1.536462,0 -2.721357,-0.523437 -3.554687,-1.570312 -0.833335,-1.052081 -1.250001,-2.544267 -1.25,-4.476563 -10e-7,-1.937492 0.416665,-3.429678 1.25,-4.476562 0.83333,-1.052072 2.018225,-1.578113 3.554687,-1.578125 1.531243,1.2e-5 2.713534,0.526053 3.546875,1.578125 0.833324,1.046884 1.24999,2.53907 1.25,4.476562" /><path
           inkscape:connector-curvature="0"
           id="path4038"
           d="m 27.757812,23.976562 2.8125,0 0,3.023438 -2.8125,0 0,-3.023438" /></g><g
         style="font-size:16px;font-style:normal;font-weight:bold;line-height:125%;letter-spacing:0px;word-spacing:0px;fill:#ff0000;fill-opacity:1;stroke:none;font-family:Sans;-inkscape-font-specification:Sans Bold;opacity:1;filter:url(#filter4189)"
         id="g4058"><path
           d="m 22.359375,21.15625 c -7e-6,-1.458326 -0.138028,-2.484367 -0.414063,-3.078125 -0.27084,-0.598949 -0.729172,-0.898428 -1.375,-0.898438 -0.645838,10e-6 -1.106775,0.299489 -1.382812,0.898438 -0.276046,0.593758 -0.414066,1.619799 -0.414063,3.078125 -3e-6,1.473963 0.138017,2.513024 0.414063,3.117187 0.276037,0.604169 0.736974,0.906252 1.382812,0.90625 0.640619,2e-6 1.098952,-0.302081 1.375,-0.90625 0.276035,-0.604163 0.414056,-1.643224 0.414063,-3.117187 m 3.007812,0.02344 c -10e-6,1.932296 -0.416676,3.424482 -1.25,4.476563 -0.833341,1.046875 -2.015632,1.570312 -3.546875,1.570312 -1.536462,0 -2.721357,-0.523437 -3.554687,-1.570312 -0.833335,-1.052081 -1.250001,-2.544267 -1.25,-4.476563 -10e-7,-1.937492 0.416665,-3.429678 1.25,-4.476562 0.83333,-1.052072 2.018225,-1.578113 3.554687,-1.578125 1.531243,1.2e-5 2.713534,0.526053 3.546875,1.578125 0.833324,1.046884 1.24999,2.53907 1.25,4.476562"
           id="path4060"
           inkscape:connector-curvature="0"
           style="fill:#ff0000" /><path
           d="m 27.757812,23.976562 2.8125,0 0,3.023438 -2.8125,0 0,-3.023438"
           id="path4063"
           inkscape:connector-curvature="0"
           style="fill:#ff0000" /></g></g></g><rect
     style="opacity:0.88114754;fill:url(#linearGradient4227);fill-opacity:1;stroke:#000000;stroke-width:0.30000000999999998;stroke-linejoin:bevel;stroke-miterlimit:4;stroke-opacity:1;stroke-dasharray:none;filter:url(#filter4332)"
     id="rect4020"
     width="62.301304"
     height="19.010096"
     x="12"
     y="12.000001"
     ry="0.99999905"
     inkscape:export-xdpi="90.739998"
     inkscape:export-ydpi="90.739998" /></svg>