<?xml version="1.0" encoding="UTF-8" standalone="no"?>
<!-- Generator: Adobe Illustrator 17.0.1, SVG Export Plug-In . SVG Version: 6.00 Build 0)  -->

<svg
   xmlns:dc="http://purl.org/dc/elements/1.1/"
   xmlns:cc="http://creativecommons.org/ns#"
   xmlns:rdf="http://www.w3.org/1999/02/22-rdf-syntax-ns#"
   xmlns:svg="http://www.w3.org/2000/svg"
   xmlns="http://www.w3.org/2000/svg"
   xmlns:xlink="http://www.w3.org/1999/xlink"
   xmlns:sodipodi="http://sodipodi.sourceforge.net/DTD/sodipodi-0.dtd"
   xmlns:inkscape="http://www.inkscape.org/namespaces/inkscape"
   version="1.1"
   x="0px"
   y="0px"
   width="86px"
   height="86px"
   viewBox="0 0 86 86"
   enable-background="new 0 0 86 86"
   xml:space="preserve"
   id="svg2"
   inkscape:version="0.48.4 r9939"
   sodipodi:docname="icon-launcher-map.svg"><metadata
     id="metadata35"><rdf:RDF><cc:Work
         rdf:about=""><dc:format>image/svg+xml</dc:format><dc:type
           rdf:resource="http://purl.org/dc/dcmitype/StillImage" /><dc:title></dc:title></cc:Work></rdf:RDF></metadata><defs
     id="defs33"><linearGradient
       inkscape:collect="always"
       id="linearGradient4189"><stop
         style="stop-color:#000000;stop-opacity:1;"
         offset="0"
         id="stop4191" /><stop
         style="stop-color:#000000;stop-opacity:0;"
         offset="1"
         id="stop4193" /></linearGradient><linearGradient
       id="linearGradient4171"
       gradientUnits="userSpaceOnUse"
       x1="85.1792"
       y1="0.8064"
       x2="12.7851"
       y2="73.2005"><stop
         offset="0"
         style="stop-color:#c4c4c4;stop-opacity:0;"
         id="stop4173" /><stop
         id="stop4175"
         style="stop-color:#c9c9c9;stop-opacity:0.24705882;"
         offset="0.5" /><stop
         id="stop4177"
         style="stop-color:#cfcfcf;stop-opacity:0.49803922;"
         offset="0.75" /><stop
         offset="1"
         style="stop-color:#DADADA"
         id="stop4179" /></linearGradient><linearGradient
       id="linearGradient4121"><stop
         id="stop4123"
         offset="0"
         style="stop-color:#ffffff;stop-opacity:1;" /><stop
         style="stop-color:#000000;stop-opacity:0;"
         offset="0.52954173"
         id="stop4127" /><stop
         id="stop4125"
         offset="1"
         style="stop-color:#000000;stop-opacity:0;" /></linearGradient><linearGradient
       y2="73.2005"
       x2="12.7851"
       y1="0.8064"
       x1="85.1792"
       gradientUnits="userSpaceOnUse"
       id="linearGradient4097"><stop
         id="stop4099"
         style="stop-color:#ffffff;stop-opacity:0;"
         offset="0" /><stop
         offset="0.0078125"
         style="stop-color:#f0f0f0;stop-opacity:0.00392157;"
         id="stop4199" /><stop
         offset="0.015625"
         style="stop-color:#e1e1e1;stop-opacity:0.01176471;"
         id="stop4197" /><stop
         offset="0.03125"
         style="stop-color:#c4c4c4;stop-opacity:0.02745098;"
         id="stop4185" /><stop
         offset="0.0625"
         style="stop-color:#c5c5c5;stop-opacity:0.05882353;"
         id="stop4183" /><stop
         offset="0.125"
         style="stop-color:#c6c6c6;stop-opacity:0.12156863;"
         id="stop4181" /><stop
         offset="0.25"
         style="stop-color:#c9c9c9;stop-opacity:0.24705882;"
         id="stop4165" /><stop
         offset="0.5"
         style="stop-color:#cfcfcf;stop-opacity:0.49803922;"
         id="stop4163" /><stop
         id="stop4101"
         style="stop-color:#DADADA"
         offset="1" /></linearGradient><filter
       inkscape:collect="always"
       id="filter3967"
       x="-0.46080245"
       width="1.9216049"
       y="-0.56373186"
       height="2.1274637"><feGaussianBlur
         inkscape:collect="always"
         stdDeviation="2.842515"
         id="feGaussianBlur3969" /></filter><linearGradient
       id="linearGradient4010"
       gradientUnits="userSpaceOnUse"
       x1="85.1792"
       y1="0.8064"
       x2="12.7851"
       y2="73.2005"><stop
         offset="0"
         style="stop-color:#4d4d4d;stop-opacity:1;"
         id="stop4012" /><stop
         offset="1"
         style="stop-color:#DADADA"
         id="stop4014" /></linearGradient><linearGradient
       inkscape:collect="always"
       xlink:href="#SVGID_1_"
       id="linearGradient4088"
       gradientUnits="userSpaceOnUse"
       x1="85.1792"
       y1="0.8064"
       x2="12.7851"
       y2="73.2005" /><linearGradient
       inkscape:collect="always"
       xlink:href="#linearGradient4097"
       id="linearGradient4095"
       gradientUnits="userSpaceOnUse"
       x1="30"
       y1="56"
       x2="12.7851"
       y2="73.2005" /><linearGradient
       inkscape:collect="always"
       xlink:href="#linearGradient4189"
       id="linearGradient4195"
       x1="40"
       y1="31"
       x2="60"
       y2="12"
       gradientUnits="userSpaceOnUse" /></defs><sodipodi:namedview
     pagecolor="#ffffff"
     bordercolor="#666666"
     borderopacity="1"
     objecttolerance="10"
     gridtolerance="10"
     guidetolerance="10"
     inkscape:pageopacity="0"
     inkscape:pageshadow="2"
     inkscape:window-width="1600"
     inkscape:window-height="880"
     id="namedview31"
     showgrid="true"
     showguides="true"
     inkscape:guide-bbox="true"
     inkscape:zoom="5.8025479"
     inkscape:cx="33.996757"
     inkscape:cy="49.144393"
     inkscape:window-x="-2"
     inkscape:window-y="-3"
     inkscape:window-maximized="1"
     inkscape:current-layer="svg2"><inkscape:grid
       type="xygrid"
       id="grid3012" /><sodipodi:guide
       orientation="1,0"
       position="12,88"
       id="guide3014" /><sodipodi:guide
       orientation="0,1"
       position="10,74"
       id="guide3016" /><sodipodi:guide
       orientation="0,1"
       position="-3,12"
       id="guide3018" /><sodipodi:guide
       orientation="1,0"
       position="74,44"
       id="guide3020" /></sodipodi:namedview><g
     id="Layer_2"
     display="none" /><g
     id="g4201"><g
       id="g4040"><linearGradient
         y2="73.2005"
         x2="12.7851"
         y1="0.8064"
         x1="85.1792"
         gradientUnits="userSpaceOnUse"
         id="linearGradient4042"><stop
           id="stop4044"
           style="stop-color:#4d4d4d;stop-opacity:1;"
           offset="0" /><stop
           id="stop4046"
           style="stop-color:#DADADA"
           offset="1" /></linearGradient><path
         inkscape:connector-curvature="0"
         id="path4048"
         d="m 12.96875,35.90625 c -0.634505,0 -1.15625,0.521745 -1.15625,1.15625 l 0,7.90625 c 0,0.634505 0.521745,1.15625 1.15625,1.15625 l 7.71875,0 c 0.634506,0 1.15625,-0.521745 1.15625,-1.15625 l 0,-7.90625 c 0,-0.634505 -0.521744,-1.15625 -1.15625,-1.15625 l -7.71875,0 z m 13.0625,0 c -0.634505,0 -1.15625,0.521745 -1.15625,1.15625 l 0,7.90625 c 0,0.634505 0.521745,1.15625 1.15625,1.15625 l 7.71875,0 c 0.634506,0 1.15625,-0.521745 1.15625,-1.15625 l 0,-7.90625 c 0,-0.634505 -0.521744,-1.15625 -1.15625,-1.15625 l -7.71875,0 z m 13.09375,0 c -0.634506,0 -1.15625,0.521745 -1.15625,1.15625 l 0,7.90625 c 0,0.634505 0.521744,1.15625 1.15625,1.15625 l 7.6875,0 c 0.634505,0 1.15625,-0.521745 1.15625,-1.15625 l 0,-7.90625 c 0,-0.634505 -0.521745,-1.15625 -1.15625,-1.15625 l -7.6875,0 z m 13.0625,0 c -0.634506,0 -1.15625,0.521745 -1.15625,1.15625 l 0,7.90625 c 0,0.634505 0.521744,1.15625 1.15625,1.15625 l 7.71875,0 c 0.634505,0 1.15625,-0.521745 1.15625,-1.15625 l 0,-7.90625 c 0,-0.634505 -0.521745,-1.15625 -1.15625,-1.15625 l -7.71875,0 z m 13.09375,0 c -0.634506,0 -1.15625,0.521745 -1.15625,1.15625 l 0,7.90625 c 0,0.634505 0.521744,1.15625 1.15625,1.15625 l 7.6875,0 c 0.634505,0 1.15625,-0.521745 1.15625,-1.15625 l 0,-7.90625 c 0,-0.634505 -0.521745,-1.15625 -1.15625,-1.15625 l -7.6875,0 z m -52.3125,0.3125 7.71875,0 c 0.473494,0 0.84375,0.370257 0.84375,0.84375 l 0,7.90625 c 0,0.473493 -0.370256,0.84375 -0.84375,0.84375 l -7.71875,0 c -0.473493,0 -0.84375,-0.370257 -0.84375,-0.84375 l 0,-7.90625 c 0,-0.473493 0.370257,-0.84375 0.84375,-0.84375 z m 13.0625,0 7.71875,0 c 0.473494,0 0.84375,0.370257 0.84375,0.84375 l 0,7.90625 c 0,0.473493 -0.370256,0.84375 -0.84375,0.84375 l -7.71875,0 c -0.473493,0 -0.84375,-0.370257 -0.84375,-0.84375 l 0,-7.90625 c 0,-0.473493 0.370257,-0.84375 0.84375,-0.84375 z m 13.09375,0 7.6875,0 c 0.473493,0 0.84375,0.370257 0.84375,0.84375 l 0,7.90625 c 0,0.473493 -0.370257,0.84375 -0.84375,0.84375 l -7.6875,0 c -0.473494,0 -0.84375,-0.370257 -0.84375,-0.84375 l 0,-7.90625 c 0,-0.473493 0.370256,-0.84375 0.84375,-0.84375 z m 13.0625,0 7.71875,0 c 0.473493,0 0.84375,0.370257 0.84375,0.84375 l 0,7.90625 c 0,0.473493 -0.370257,0.84375 -0.84375,0.84375 l -7.71875,0 c -0.473494,0 -0.84375,-0.370257 -0.84375,-0.84375 l 0,-7.90625 c 0,-0.473493 0.370256,-0.84375 0.84375,-0.84375 z m 13.09375,0 7.6875,0 c 0.473493,0 0.84375,0.370257 0.84375,0.84375 l 0,7.90625 c 0,0.473493 -0.370257,0.84375 -0.84375,0.84375 l -7.6875,0 c -0.473494,0 -0.84375,-0.370257 -0.84375,-0.84375 l 0,-7.90625 c 0,-0.473493 0.370256,-0.84375 0.84375,-0.84375 z m -52.3125,14.625 c -0.634505,0 -1.15625,0.521744 -1.15625,1.15625 l 0,7.90625 c 0,0.634506 0.521745,1.15625 1.15625,1.15625 l 7.71875,0 c 0.634505,0 1.15625,-0.521745 1.15625,-1.15625 l 0,-7.90625 c 0,-0.634505 -0.521745,-1.15625 -1.15625,-1.15625 l -7.71875,0 z m 13.0625,0 C 25.396745,50.84375 24.875,51.365494 24.875,52 l 0,7.90625 c 0,0.634506 0.521745,1.15625 1.15625,1.15625 l 7.71875,0 c 0.634505,0 1.15625,-0.521745 1.15625,-1.15625 l 0,-7.90625 c 0,-0.634505 -0.521745,-1.15625 -1.15625,-1.15625 l -7.71875,0 z m 13.09375,0 c -0.634505,0 -1.15625,0.521745 -1.15625,1.15625 l 0,7.90625 c 0,0.634505 0.521745,1.15625 1.15625,1.15625 l 7.6875,0 c 0.634505,0 1.15625,-0.521744 1.15625,-1.15625 l 0,-7.90625 c 0,-0.634506 -0.521745,-1.15625 -1.15625,-1.15625 l -7.6875,0 z m 13.0625,0 c -0.634505,0 -1.15625,0.521745 -1.15625,1.15625 l 0,7.90625 c 0,0.634505 0.521745,1.15625 1.15625,1.15625 l 7.71875,0 c 0.634505,0 1.15625,-0.521744 1.15625,-1.15625 l 0,-7.90625 c 0,-0.634506 -0.521745,-1.15625 -1.15625,-1.15625 l -7.71875,0 z m 13.09375,0 C 64.646745,50.84375 64.125,51.365495 64.125,52 l 0,7.90625 c 0,0.634505 0.521745,1.15625 1.15625,1.15625 l 7.6875,0 c 0.634505,0 1.15625,-0.521744 1.15625,-1.15625 L 74.125,52 c 0,-0.634506 -0.521745,-1.15625 -1.15625,-1.15625 l -7.6875,0 z m -52.3125,0.3125 7.71875,0 c 0.473495,0 0.84375,0.370255 0.84375,0.84375 l 0,7.90625 c 0,0.473495 -0.370255,0.84375 -0.84375,0.84375 l -7.71875,0 C 12.495257,60.75 12.125,60.379744 12.125,59.90625 L 12.125,52 c 0,-0.473494 0.370257,-0.84375 0.84375,-0.84375 z m 13.0625,0 7.71875,0 c 0.473495,0 0.84375,0.370255 0.84375,0.84375 l 0,7.90625 c 0,0.473495 -0.370255,0.84375 -0.84375,0.84375 l -7.71875,0 c -0.473493,0 -0.84375,-0.370256 -0.84375,-0.84375 l 0,-7.90625 c 0,-0.473494 0.370257,-0.84375 0.84375,-0.84375 z m 13.09375,0 7.6875,0 c 0.473493,0 0.84375,0.370256 0.84375,0.84375 l 0,7.90625 c 0,0.473494 -0.370257,0.84375 -0.84375,0.84375 l -7.6875,0 c -0.473495,0 -0.84375,-0.370255 -0.84375,-0.84375 l 0,-7.90625 c 0,-0.473495 0.370255,-0.84375 0.84375,-0.84375 z m 13.0625,0 7.71875,0 c 0.473493,0 0.84375,0.370256 0.84375,0.84375 l 0,7.90625 c 0,0.473494 -0.370257,0.84375 -0.84375,0.84375 l -7.71875,0 c -0.473495,0 -0.84375,-0.370255 -0.84375,-0.84375 l 0,-7.90625 c 0,-0.473495 0.370255,-0.84375 0.84375,-0.84375 z m 13.09375,0 7.6875,0 c 0.473493,0 0.84375,0.370256 0.84375,0.84375 l 0,7.90625 c 0,0.473494 -0.370257,0.84375 -0.84375,0.84375 l -7.6875,0 c -0.473495,0 -0.84375,-0.370255 -0.84375,-0.84375 l 0,-7.90625 c 0,-0.473495 0.370255,-0.84375 0.84375,-0.84375 z m -52.1875,14.625 c -0.634506,0 -1.15625,0.521745 -1.15625,1.15625 l 0,5.5625 0,0.0625 L 12,72.59375 c 1.143861,1.197869 2.350359,2.347673 3.625,3.40625 l 0.03125,0.03125 0.0625,0 18.03125,0 c 0.634506,0 1.15625,-0.521745 1.15625,-1.15625 l 0,-7.9375 c 0,-0.634505 -0.521744,-1.15625 -1.15625,-1.15625 l -20.65625,0 z m 26.03125,0 c -0.634506,0 -1.15625,0.521745 -1.15625,1.15625 l 0,7.9375 c 0,0.634505 0.521744,1.15625 1.15625,1.15625 l 7.6875,0 c 0.634505,0 1.15625,-0.521745 1.15625,-1.15625 l 0,-7.9375 c 0,-0.634505 -0.521745,-1.15625 -1.15625,-1.15625 l -7.6875,0 z m 13.0625,0 c -0.634506,0 -1.15625,0.521745 -1.15625,1.15625 l 0,7.9375 c 0,0.634505 0.521744,1.15625 1.15625,1.15625 l 7.71875,0 c 0.634505,0 1.15625,-0.521745 1.15625,-1.15625 l 0,-7.9375 c 0,-0.634505 -0.521745,-1.15625 -1.15625,-1.15625 l -7.71875,0 z m 13.09375,0 c -0.634506,0 -1.15625,0.521745 -1.15625,1.15625 l 0,7.9375 c 0,0.634505 0.521744,1.15625 1.15625,1.15625 l 7.6875,0 c 0.634505,0 1.15625,-0.521745 1.15625,-1.15625 l 0,-7.9375 c 0,-0.634505 -0.521745,-1.15625 -1.15625,-1.15625 l -7.6875,0 z m -52.1875,0.3125 20.65625,0 c 0.473494,0 0.84375,0.370257 0.84375,0.84375 l 0,7.9375 c 0,0.473493 -0.370256,0.84375 -0.84375,0.84375 l -17.96875,0 c -1.231238,-1.024573 -2.423701,-2.095217 -3.53125,-3.25 l 0,-5.53125 c 0,-0.473493 0.370256,-0.84375 0.84375,-0.84375 z m 26.03125,0 7.6875,0 c 0.473493,0 0.84375,0.370257 0.84375,0.84375 l 0,7.9375 c 0,0.473493 -0.370257,0.84375 -0.84375,0.84375 l -7.6875,0 c -0.473494,0 -0.84375,-0.370257 -0.84375,-0.84375 l 0,-7.9375 c 0,-0.473493 0.370256,-0.84375 0.84375,-0.84375 z m 13.0625,0 7.71875,0 c 0.473493,0 0.84375,0.370257 0.84375,0.84375 l 0,7.9375 c 0,0.473493 -0.370257,0.84375 -0.84375,0.84375 l -7.71875,0 c -0.473494,0 -0.84375,-0.370257 -0.84375,-0.84375 l 0,-7.9375 c 0,-0.473493 0.370256,-0.84375 0.84375,-0.84375 z m 13.09375,0 7.6875,0 c 0.473493,0 0.84375,0.370257 0.84375,0.84375 l 0,7.9375 c 0,0.473493 -0.370257,0.84375 -0.84375,0.84375 l -7.6875,0 c -0.473494,0 -0.84375,-0.370257 -0.84375,-0.84375 l 0,-7.9375 c 0,-0.473493 0.370256,-0.84375 0.84375,-0.84375 z m -39.25,14.625 c -0.583806,0 -1.04981,0.442595 -1.125,1 l 0,0.125 L 25,81.875 c 3.066941,1.420456 6.309588,2.523734 9.71875,3.1875 l 0.1875,0.03125 0,-0.1875 0,-3.03125 c 0,-0.634505 -0.521745,-1.15625 -1.15625,-1.15625 l -7.71875,0 z m 13.09375,0 c -0.634505,0 -1.15625,0.521745 -1.15625,1.15625 l 0,3.53125 0,0.125 0.125,0.03125 c 1.591783,0.179614 3.202643,0.28125 4.84375,0.28125 l 4.875,0 0.15625,0 0,-0.15625 0,-3.8125 c 0,-0.634506 -0.521745,-1.15625 -1.15625,-1.15625 l -7.6875,0 z m 13.0625,0 c -0.634505,0 -1.15625,0.521745 -1.15625,1.15625 l 0,3.8125 0,0.15625 0.15625,0 9.71875,0 0.15625,0 0,-0.15625 0,-3.8125 c 0,-0.634506 -0.521745,-1.15625 -1.15625,-1.15625 l -7.71875,0 z m 13.09375,0 c -0.634505,0 -1.15625,0.521745 -1.15625,1.15625 l 0,3.8125 0,0.15625 0.15625,0 9.6875,0 0.15625,0 0,-0.15625 0,-3.8125 c 0,-0.634506 -0.521745,-1.15625 -1.15625,-1.15625 l -7.6875,0 z m -39.25,0.3125 7.71875,0 c 0.473495,0 0.84375,0.370255 0.84375,0.84375 l 0,2.8125 c -3.246841,-0.648674 -6.346365,-1.656448 -9.28125,-3 0.105709,-0.347224 0.338632,-0.65625 0.71875,-0.65625 z m 13.09375,0 7.6875,0 c 0.473493,0 0.84375,0.370256 0.84375,0.84375 l 0,3.65625 -4.71875,0 c -1.586176,0 -3.115089,-0.111278 -4.65625,-0.28125 l 0,-3.375 c 0,-0.473495 0.370255,-0.84375 0.84375,-0.84375 z m 13.0625,0 7.71875,0 c 0.473493,0 0.84375,0.370256 0.84375,0.84375 l 0,3.65625 -9.40625,0 0,-3.65625 c 0,-0.473495 0.370255,-0.84375 0.84375,-0.84375 z m 13.09375,0 7.6875,0 c 0.473493,0 0.84375,0.370256 0.84375,0.84375 l 0,3.65625 -9.375,0 0,-3.65625 c 0,-0.473495 0.370255,-0.84375 0.84375,-0.84375 z"
         style="font-size:medium;font-style:normal;font-variant:normal;font-weight:normal;font-stretch:normal;text-indent:0;text-align:start;text-decoration:none;line-height:normal;letter-spacing:normal;word-spacing:normal;text-transform:none;direction:ltr;block-progression:tb;writing-mode:lr-tb;text-anchor:start;baseline-shift:baseline;opacity:0.33000004;color:#000000;fill:#000000;fill-opacity:1;fill-rule:nonzero;stroke:none;stroke-width:0.30000001;marker:none;visibility:visible;display:inline;overflow:visible;enable-background:accumulate;font-family:Sans;-inkscape-font-specification:Sans" /><path
         fill="url(#SVGID_1_)"
         id="path4050"
         d="M85.603,1.819c0-0.785-0.636-1.422-1.422-1.422H1.722C0.937,0.397,0.3,1.034,0.3,1.819v41.23   C0.3,66.605,19.396,85.7,42.951,85.7h41.23c0.785,0,1.422-0.696,1.422-1.481V1.819z" /><rect
         ry="0.99999905"
         y="12.000001"
         x="12"
         height="19.010096"
         width="62.301304"
         id="rect4052"
         style="opacity:0.668;fill:#000000;fill-opacity:1;stroke:#000000;stroke-width:0.30000000999999998;stroke-linejoin:bevel;stroke-miterlimit:4;stroke-opacity:1;stroke-dasharray:none" /><path
         id="path4054"
         d="M 12.96875 36.0625 C 12.414751 36.0625 11.96875 36.508501 11.96875 37.0625 L 11.96875 44.96875 C 11.96875 45.522749 12.414751 45.96875 12.96875 45.96875 L 20.6875 45.96875 C 21.2415 45.96875 21.6875 45.522749 21.6875 44.96875 L 21.6875 37.0625 C 21.6875 36.508501 21.2415 36.0625 20.6875 36.0625 L 12.96875 36.0625 z M 26.03125 36.0625 C 25.477251 36.0625 25.03125 36.508501 25.03125 37.0625 L 25.03125 44.96875 C 25.03125 45.522749 25.477251 45.96875 26.03125 45.96875 L 33.75 45.96875 C 34.304 45.96875 34.75 45.522749 34.75 44.96875 L 34.75 37.0625 C 34.75 36.508501 34.304 36.0625 33.75 36.0625 L 26.03125 36.0625 z M 39.125 36.0625 C 38.571 36.0625 38.125 36.508501 38.125 37.0625 L 38.125 44.96875 C 38.125 45.522749 38.571 45.96875 39.125 45.96875 L 46.8125 45.96875 C 47.366499 45.96875 47.8125 45.522749 47.8125 44.96875 L 47.8125 37.0625 C 47.8125 36.508501 47.366499 36.0625 46.8125 36.0625 L 39.125 36.0625 z M 52.1875 36.0625 C 51.6335 36.0625 51.1875 36.508501 51.1875 37.0625 L 51.1875 44.96875 C 51.1875 45.522749 51.6335 45.96875 52.1875 45.96875 L 59.90625 45.96875 C 60.460249 45.96875 60.90625 45.522749 60.90625 44.96875 L 60.90625 37.0625 C 60.90625 36.508501 60.460249 36.0625 59.90625 36.0625 L 52.1875 36.0625 z M 65.28125 36.0625 C 64.72725 36.0625 64.28125 36.508501 64.28125 37.0625 L 64.28125 44.96875 C 64.28125 45.522749 64.72725 45.96875 65.28125 45.96875 L 72.96875 45.96875 C 73.522749 45.96875 73.96875 45.522749 73.96875 44.96875 L 73.96875 37.0625 C 73.96875 36.508501 73.522749 36.0625 72.96875 36.0625 L 65.28125 36.0625 z M 12.96875 51 C 12.414751 51 11.96875 51.446 11.96875 52 L 11.96875 59.90625 C 11.96875 60.46025 12.414751 60.90625 12.96875 60.90625 L 20.6875 60.90625 C 21.2415 60.90625 21.6875 60.46025 21.6875 59.90625 L 21.6875 52 C 21.6875 51.446 21.2415 51 20.6875 51 L 12.96875 51 z M 26.03125 51 C 25.477251 51 25.03125 51.446 25.03125 52 L 25.03125 59.90625 C 25.03125 60.46025 25.477251 60.90625 26.03125 60.90625 L 33.75 60.90625 C 34.304 60.90625 34.75 60.46025 34.75 59.90625 L 34.75 52 C 34.75 51.446 34.304 51 33.75 51 L 26.03125 51 z M 39.125 51 C 38.571 51 38.125 51.446 38.125 52 L 38.125 59.90625 C 38.125 60.46025 38.571 60.90625 39.125 60.90625 L 46.8125 60.90625 C 47.366499 60.90625 47.8125 60.46025 47.8125 59.90625 L 47.8125 52 C 47.8125 51.446 47.366499 51 46.8125 51 L 39.125 51 z M 52.1875 51 C 51.6335 51 51.1875 51.446 51.1875 52 L 51.1875 59.90625 C 51.1875 60.46025 51.6335 60.90625 52.1875 60.90625 L 59.90625 60.90625 C 60.460249 60.90625 60.90625 60.46025 60.90625 59.90625 L 60.90625 52 C 60.90625 51.446 60.460249 51 59.90625 51 L 52.1875 51 z M 65.28125 51 C 64.72725 51 64.28125 51.446 64.28125 52 L 64.28125 59.90625 C 64.28125 60.46025 64.72725 60.90625 65.28125 60.90625 L 72.96875 60.90625 C 73.522749 60.90625 73.96875 60.46025 73.96875 59.90625 L 73.96875 52 C 73.96875 51.446 73.522749 51 72.96875 51 L 65.28125 51 z M 13.09375 65.9375 C 12.53975 65.9375 12.09375 66.383501 12.09375 66.9375 L 12.09375 72.5 C 13.233396 73.693455 14.448319 74.81992 15.71875 75.875 L 33.75 75.875 C 34.304 75.875 34.75 75.428999 34.75 74.875 L 34.75 66.9375 C 34.75 66.383501 34.304 65.9375 33.75 65.9375 L 13.09375 65.9375 z M 39.125 65.9375 C 38.571 65.9375 38.125 66.383501 38.125 66.9375 L 38.125 74.875 C 38.125 75.428999 38.571 75.875 39.125 75.875 L 46.8125 75.875 C 47.366499 75.875 47.8125 75.428999 47.8125 74.875 L 47.8125 66.9375 C 47.8125 66.383501 47.366499 65.9375 46.8125 65.9375 L 39.125 65.9375 z M 52.1875 65.9375 C 51.6335 65.9375 51.1875 66.383501 51.1875 66.9375 L 51.1875 74.875 C 51.1875 75.428999 51.6335 75.875 52.1875 75.875 L 59.90625 75.875 C 60.460249 75.875 60.90625 75.428999 60.90625 74.875 L 60.90625 66.9375 C 60.90625 66.383501 60.460249 65.9375 59.90625 65.9375 L 52.1875 65.9375 z M 65.28125 65.9375 C 64.72725 65.9375 64.28125 66.383501 64.28125 66.9375 L 64.28125 74.875 C 64.28125 75.428999 64.72725 75.875 65.28125 75.875 L 72.96875 75.875 C 73.522749 75.875 73.96875 75.428999 73.96875 74.875 L 73.96875 66.9375 C 73.96875 66.383501 73.522749 65.9375 72.96875 65.9375 L 65.28125 65.9375 z M 26.03125 80.875 C 25.523418 80.875 25.128487 81.260818 25.0625 81.75 C 28.119207 83.165716 31.353354 84.244921 34.75 84.90625 L 34.75 81.875 C 34.75 81.321 34.304 80.875 33.75 80.875 L 26.03125 80.875 z M 39.125 80.875 C 38.571 80.875 38.125 81.321 38.125 81.875 L 38.125 85.40625 C 39.712003 85.585325 41.302643 85.6875 42.9375 85.6875 L 47.8125 85.6875 L 47.8125 81.875 C 47.8125 81.321 47.366499 80.875 46.8125 80.875 L 39.125 80.875 z M 52.1875 80.875 C 51.6335 80.875 51.1875 81.321 51.1875 81.875 L 51.1875 85.6875 L 60.90625 85.6875 L 60.90625 81.875 C 60.90625 81.321 60.460249 80.875 59.90625 80.875 L 52.1875 80.875 z M 65.28125 80.875 C 64.72725 80.875 64.28125 81.321 64.28125 81.875 L 64.28125 85.6875 L 73.96875 85.6875 L 73.96875 81.875 C 73.96875 81.321 73.522749 80.875 72.96875 80.875 L 65.28125 80.875 z "
         style="opacity:0.33000003999999999;fill:#000000;fill-opacity:1;stroke:#000000;stroke-width:0.29999999999999999;stroke-miterlimit:4;stroke-opacity:1;stroke-dasharray:none" /><text
         sodipodi:linespacing="125%"
         id="text4056"
         y="27"
         x="15"
         style="font-size:16px;font-style:normal;font-weight:bold;line-height:125%;letter-spacing:0px;word-spacing:0px;fill:#ffffff;fill-opacity:1;stroke:none;font-family:Sans;-inkscape-font-specification:Sans Bold"
         xml:space="preserve"><tspan
           y="27"
           x="15"
           id="tspan4058"
           sodipodi:role="line">0.</tspan></text>
<g
         id="g4060"
         style="font-size:16px;font-style:normal;font-weight:bold;line-height:125%;letter-spacing:0px;word-spacing:0px;fill:#ff0000;fill-opacity:1;stroke:none;font-family:Sans;-inkscape-font-specification:Sans Bold"><path
           id="path4062"
           style=""
           d="m 22.359375,21.15625 c -7e-6,-1.458326 -0.138028,-2.484367 -0.414063,-3.078125 -0.27084,-0.598949 -0.729172,-0.898428 -1.375,-0.898438 -0.645838,10e-6 -1.106775,0.299489 -1.382812,0.898438 -0.276046,0.593758 -0.414066,1.619799 -0.414063,3.078125 -3e-6,1.473963 0.138017,2.513024 0.414063,3.117187 0.276037,0.604169 0.736974,0.906252 1.382812,0.90625 0.640619,2e-6 1.098952,-0.302081 1.375,-0.90625 0.276035,-0.604163 0.414056,-1.643224 0.414063,-3.117187 m 3.007812,0.02344 c -10e-6,1.932296 -0.416676,3.424482 -1.25,4.476563 -0.833341,1.046875 -2.015632,1.570312 -3.546875,1.570312 -1.536462,0 -2.721357,-0.523437 -3.554687,-1.570312 -0.833335,-1.052081 -1.250001,-2.544267 -1.25,-4.476563 -10e-7,-1.937492 0.416665,-3.429678 1.25,-4.476562 0.83333,-1.052072 2.018225,-1.578113 3.554687,-1.578125 1.531243,1.2e-5 2.713534,0.526053 3.546875,1.578125 0.833324,1.046884 1.24999,2.53907 1.25,4.476562" /><path
           id="path4064"
           style=""
           d="m 27.757812,23.976562 2.8125,0 0,3.023438 -2.8125,0 0,-3.023438" /></g><g
         style="font-size:16px;font-style:normal;font-weight:bold;line-height:125%;letter-spacing:0px;word-spacing:0px;fill:#ff0000;fill-opacity:1;stroke:none;font-family:Sans;-inkscape-font-specification:Sans Bold;filter:url(#filter3967)"
         id="g4066"><path
           d="m 22.359375,21.15625 c -7e-6,-1.458326 -0.138028,-2.484367 -0.414063,-3.078125 -0.27084,-0.598949 -0.729172,-0.898428 -1.375,-0.898438 -0.645838,10e-6 -1.106775,0.299489 -1.382812,0.898438 -0.276046,0.593758 -0.414066,1.619799 -0.414063,3.078125 -3e-6,1.473963 0.138017,2.513024 0.414063,3.117187 0.276037,0.604169 0.736974,0.906252 1.382812,0.90625 0.640619,2e-6 1.098952,-0.302081 1.375,-0.90625 0.276035,-0.604163 0.414056,-1.643224 0.414063,-3.117187 m 3.007812,0.02344 c -10e-6,1.932296 -0.416676,3.424482 -1.25,4.476563 -0.833341,1.046875 -2.015632,1.570312 -3.546875,1.570312 -1.536462,0 -2.721357,-0.523437 -3.554687,-1.570312 -0.833335,-1.052081 -1.250001,-2.544267 -1.25,-4.476563 -10e-7,-1.937492 0.416665,-3.429678 1.25,-4.476562 0.83333,-1.052072 2.018225,-1.578113 3.554687,-1.578125 1.531243,1.2e-5 2.713534,0.526053 3.546875,1.578125 0.833324,1.046884 1.24999,2.53907 1.25,4.476562"
           style=""
           id="path4068" /><path
           d="m 27.757812,23.976562 2.8125,0 0,3.023438 -2.8125,0 0,-3.023438"
           style=""
           id="path4070" /></g></g><g
       id="Layer_1"><linearGradient
         y2="73.2005"
         x2="12.7851"
         y1="0.8064"
         x1="85.1792"
         gradientUnits="userSpaceOnUse"
         id="SVGID_1_"><stop
           id="stop7"
           style="stop-color:#4d4d4d;stop-opacity:1;"
           offset="0" /><stop
           id="stop9"
           style="stop-color:#DADADA"
           offset="1" /></linearGradient><path
         inkscape:connector-curvature="0"
         id="rect3859"
         d="m 12.96875,35.90625 c -0.634505,0 -1.15625,0.521745 -1.15625,1.15625 l 0,7.90625 c 0,0.634505 0.521745,1.15625 1.15625,1.15625 l 7.71875,0 c 0.634506,0 1.15625,-0.521745 1.15625,-1.15625 l 0,-7.90625 c 0,-0.634505 -0.521744,-1.15625 -1.15625,-1.15625 l -7.71875,0 z m 13.0625,0 c -0.634505,0 -1.15625,0.521745 -1.15625,1.15625 l 0,7.90625 c 0,0.634505 0.521745,1.15625 1.15625,1.15625 l 7.71875,0 c 0.634506,0 1.15625,-0.521745 1.15625,-1.15625 l 0,-7.90625 c 0,-0.634505 -0.521744,-1.15625 -1.15625,-1.15625 l -7.71875,0 z m 13.09375,0 c -0.634506,0 -1.15625,0.521745 -1.15625,1.15625 l 0,7.90625 c 0,0.634505 0.521744,1.15625 1.15625,1.15625 l 7.6875,0 c 0.634505,0 1.15625,-0.521745 1.15625,-1.15625 l 0,-7.90625 c 0,-0.634505 -0.521745,-1.15625 -1.15625,-1.15625 l -7.6875,0 z m 13.0625,0 c -0.634506,0 -1.15625,0.521745 -1.15625,1.15625 l 0,7.90625 c 0,0.634505 0.521744,1.15625 1.15625,1.15625 l 7.71875,0 c 0.634505,0 1.15625,-0.521745 1.15625,-1.15625 l 0,-7.90625 c 0,-0.634505 -0.521745,-1.15625 -1.15625,-1.15625 l -7.71875,0 z m 13.09375,0 c -0.634506,0 -1.15625,0.521745 -1.15625,1.15625 l 0,7.90625 c 0,0.634505 0.521744,1.15625 1.15625,1.15625 l 7.6875,0 c 0.634505,0 1.15625,-0.521745 1.15625,-1.15625 l 0,-7.90625 c 0,-0.634505 -0.521745,-1.15625 -1.15625,-1.15625 l -7.6875,0 z m -52.3125,0.3125 7.71875,0 c 0.473494,0 0.84375,0.370257 0.84375,0.84375 l 0,7.90625 c 0,0.473493 -0.370256,0.84375 -0.84375,0.84375 l -7.71875,0 c -0.473493,0 -0.84375,-0.370257 -0.84375,-0.84375 l 0,-7.90625 c 0,-0.473493 0.370257,-0.84375 0.84375,-0.84375 z m 13.0625,0 7.71875,0 c 0.473494,0 0.84375,0.370257 0.84375,0.84375 l 0,7.90625 c 0,0.473493 -0.370256,0.84375 -0.84375,0.84375 l -7.71875,0 c -0.473493,0 -0.84375,-0.370257 -0.84375,-0.84375 l 0,-7.90625 c 0,-0.473493 0.370257,-0.84375 0.84375,-0.84375 z m 13.09375,0 7.6875,0 c 0.473493,0 0.84375,0.370257 0.84375,0.84375 l 0,7.90625 c 0,0.473493 -0.370257,0.84375 -0.84375,0.84375 l -7.6875,0 c -0.473494,0 -0.84375,-0.370257 -0.84375,-0.84375 l 0,-7.90625 c 0,-0.473493 0.370256,-0.84375 0.84375,-0.84375 z m 13.0625,0 7.71875,0 c 0.473493,0 0.84375,0.370257 0.84375,0.84375 l 0,7.90625 c 0,0.473493 -0.370257,0.84375 -0.84375,0.84375 l -7.71875,0 c -0.473494,0 -0.84375,-0.370257 -0.84375,-0.84375 l 0,-7.90625 c 0,-0.473493 0.370256,-0.84375 0.84375,-0.84375 z m 13.09375,0 7.6875,0 c 0.473493,0 0.84375,0.370257 0.84375,0.84375 l 0,7.90625 c 0,0.473493 -0.370257,0.84375 -0.84375,0.84375 l -7.6875,0 c -0.473494,0 -0.84375,-0.370257 -0.84375,-0.84375 l 0,-7.90625 c 0,-0.473493 0.370256,-0.84375 0.84375,-0.84375 z m -52.3125,14.625 c -0.634505,0 -1.15625,0.521744 -1.15625,1.15625 l 0,7.90625 c 0,0.634506 0.521745,1.15625 1.15625,1.15625 l 7.71875,0 c 0.634505,0 1.15625,-0.521745 1.15625,-1.15625 l 0,-7.90625 c 0,-0.634505 -0.521745,-1.15625 -1.15625,-1.15625 l -7.71875,0 z m 13.0625,0 C 25.396745,50.84375 24.875,51.365494 24.875,52 l 0,7.90625 c 0,0.634506 0.521745,1.15625 1.15625,1.15625 l 7.71875,0 c 0.634505,0 1.15625,-0.521745 1.15625,-1.15625 l 0,-7.90625 c 0,-0.634505 -0.521745,-1.15625 -1.15625,-1.15625 l -7.71875,0 z m 13.09375,0 c -0.634505,0 -1.15625,0.521745 -1.15625,1.15625 l 0,7.90625 c 0,0.634505 0.521745,1.15625 1.15625,1.15625 l 7.6875,0 c 0.634505,0 1.15625,-0.521744 1.15625,-1.15625 l 0,-7.90625 c 0,-0.634506 -0.521745,-1.15625 -1.15625,-1.15625 l -7.6875,0 z m 13.0625,0 c -0.634505,0 -1.15625,0.521745 -1.15625,1.15625 l 0,7.90625 c 0,0.634505 0.521745,1.15625 1.15625,1.15625 l 7.71875,0 c 0.634505,0 1.15625,-0.521744 1.15625,-1.15625 l 0,-7.90625 c 0,-0.634506 -0.521745,-1.15625 -1.15625,-1.15625 l -7.71875,0 z m 13.09375,0 C 64.646745,50.84375 64.125,51.365495 64.125,52 l 0,7.90625 c 0,0.634505 0.521745,1.15625 1.15625,1.15625 l 7.6875,0 c 0.634505,0 1.15625,-0.521744 1.15625,-1.15625 L 74.125,52 c 0,-0.634506 -0.521745,-1.15625 -1.15625,-1.15625 l -7.6875,0 z m -52.3125,0.3125 7.71875,0 c 0.473495,0 0.84375,0.370255 0.84375,0.84375 l 0,7.90625 c 0,0.473495 -0.370255,0.84375 -0.84375,0.84375 l -7.71875,0 C 12.495257,60.75 12.125,60.379744 12.125,59.90625 L 12.125,52 c 0,-0.473494 0.370257,-0.84375 0.84375,-0.84375 z m 13.0625,0 7.71875,0 c 0.473495,0 0.84375,0.370255 0.84375,0.84375 l 0,7.90625 c 0,0.473495 -0.370255,0.84375 -0.84375,0.84375 l -7.71875,0 c -0.473493,0 -0.84375,-0.370256 -0.84375,-0.84375 l 0,-7.90625 c 0,-0.473494 0.370257,-0.84375 0.84375,-0.84375 z m 13.09375,0 7.6875,0 c 0.473493,0 0.84375,0.370256 0.84375,0.84375 l 0,7.90625 c 0,0.473494 -0.370257,0.84375 -0.84375,0.84375 l -7.6875,0 c -0.473495,0 -0.84375,-0.370255 -0.84375,-0.84375 l 0,-7.90625 c 0,-0.473495 0.370255,-0.84375 0.84375,-0.84375 z m 13.0625,0 7.71875,0 c 0.473493,0 0.84375,0.370256 0.84375,0.84375 l 0,7.90625 c 0,0.473494 -0.370257,0.84375 -0.84375,0.84375 l -7.71875,0 c -0.473495,0 -0.84375,-0.370255 -0.84375,-0.84375 l 0,-7.90625 c 0,-0.473495 0.370255,-0.84375 0.84375,-0.84375 z m 13.09375,0 7.6875,0 c 0.473493,0 0.84375,0.370256 0.84375,0.84375 l 0,7.90625 c 0,0.473494 -0.370257,0.84375 -0.84375,0.84375 l -7.6875,0 c -0.473495,0 -0.84375,-0.370255 -0.84375,-0.84375 l 0,-7.90625 c 0,-0.473495 0.370255,-0.84375 0.84375,-0.84375 z m -52.1875,14.625 c -0.634506,0 -1.15625,0.521745 -1.15625,1.15625 l 0,5.5625 0,0.0625 L 12,72.59375 c 1.143861,1.197869 2.350359,2.347673 3.625,3.40625 l 0.03125,0.03125 0.0625,0 18.03125,0 c 0.634506,0 1.15625,-0.521745 1.15625,-1.15625 l 0,-7.9375 c 0,-0.634505 -0.521744,-1.15625 -1.15625,-1.15625 l -20.65625,0 z m 26.03125,0 c -0.634506,0 -1.15625,0.521745 -1.15625,1.15625 l 0,7.9375 c 0,0.634505 0.521744,1.15625 1.15625,1.15625 l 7.6875,0 c 0.634505,0 1.15625,-0.521745 1.15625,-1.15625 l 0,-7.9375 c 0,-0.634505 -0.521745,-1.15625 -1.15625,-1.15625 l -7.6875,0 z m 13.0625,0 c -0.634506,0 -1.15625,0.521745 -1.15625,1.15625 l 0,7.9375 c 0,0.634505 0.521744,1.15625 1.15625,1.15625 l 7.71875,0 c 0.634505,0 1.15625,-0.521745 1.15625,-1.15625 l 0,-7.9375 c 0,-0.634505 -0.521745,-1.15625 -1.15625,-1.15625 l -7.71875,0 z m 13.09375,0 c -0.634506,0 -1.15625,0.521745 -1.15625,1.15625 l 0,7.9375 c 0,0.634505 0.521744,1.15625 1.15625,1.15625 l 7.6875,0 c 0.634505,0 1.15625,-0.521745 1.15625,-1.15625 l 0,-7.9375 c 0,-0.634505 -0.521745,-1.15625 -1.15625,-1.15625 l -7.6875,0 z m -52.1875,0.3125 20.65625,0 c 0.473494,0 0.84375,0.370257 0.84375,0.84375 l 0,7.9375 c 0,0.473493 -0.370256,0.84375 -0.84375,0.84375 l -17.96875,0 c -1.231238,-1.024573 -2.423701,-2.095217 -3.53125,-3.25 l 0,-5.53125 c 0,-0.473493 0.370256,-0.84375 0.84375,-0.84375 z m 26.03125,0 7.6875,0 c 0.473493,0 0.84375,0.370257 0.84375,0.84375 l 0,7.9375 c 0,0.473493 -0.370257,0.84375 -0.84375,0.84375 l -7.6875,0 c -0.473494,0 -0.84375,-0.370257 -0.84375,-0.84375 l 0,-7.9375 c 0,-0.473493 0.370256,-0.84375 0.84375,-0.84375 z m 13.0625,0 7.71875,0 c 0.473493,0 0.84375,0.370257 0.84375,0.84375 l 0,7.9375 c 0,0.473493 -0.370257,0.84375 -0.84375,0.84375 l -7.71875,0 c -0.473494,0 -0.84375,-0.370257 -0.84375,-0.84375 l 0,-7.9375 c 0,-0.473493 0.370256,-0.84375 0.84375,-0.84375 z m 13.09375,0 7.6875,0 c 0.473493,0 0.84375,0.370257 0.84375,0.84375 l 0,7.9375 c 0,0.473493 -0.370257,0.84375 -0.84375,0.84375 l -7.6875,0 c -0.473494,0 -0.84375,-0.370257 -0.84375,-0.84375 l 0,-7.9375 c 0,-0.473493 0.370256,-0.84375 0.84375,-0.84375 z m -39.25,14.625 c -0.583806,0 -1.04981,0.442595 -1.125,1 l 0,0.125 L 25,81.875 c 3.066941,1.420456 6.309588,2.523734 9.71875,3.1875 l 0.1875,0.03125 0,-0.1875 0,-3.03125 c 0,-0.634505 -0.521745,-1.15625 -1.15625,-1.15625 l -7.71875,0 z m 13.09375,0 c -0.634505,0 -1.15625,0.521745 -1.15625,1.15625 l 0,3.53125 0,0.125 0.125,0.03125 c 1.591783,0.179614 3.202643,0.28125 4.84375,0.28125 l 4.875,0 0.15625,0 0,-0.15625 0,-3.8125 c 0,-0.634506 -0.521745,-1.15625 -1.15625,-1.15625 l -7.6875,0 z m 13.0625,0 c -0.634505,0 -1.15625,0.521745 -1.15625,1.15625 l 0,3.8125 0,0.15625 0.15625,0 9.71875,0 0.15625,0 0,-0.15625 0,-3.8125 c 0,-0.634506 -0.521745,-1.15625 -1.15625,-1.15625 l -7.71875,0 z m 13.09375,0 c -0.634505,0 -1.15625,0.521745 -1.15625,1.15625 l 0,3.8125 0,0.15625 0.15625,0 9.6875,0 0.15625,0 0,-0.15625 0,-3.8125 c 0,-0.634506 -0.521745,-1.15625 -1.15625,-1.15625 l -7.6875,0 z m -39.25,0.3125 7.71875,0 c 0.473495,0 0.84375,0.370255 0.84375,0.84375 l 0,2.8125 c -3.246841,-0.648674 -6.346365,-1.656448 -9.28125,-3 0.105709,-0.347224 0.338632,-0.65625 0.71875,-0.65625 z m 13.09375,0 7.6875,0 c 0.473493,0 0.84375,0.370256 0.84375,0.84375 l 0,3.65625 -4.71875,0 c -1.586176,0 -3.115089,-0.111278 -4.65625,-0.28125 l 0,-3.375 c 0,-0.473495 0.370255,-0.84375 0.84375,-0.84375 z m 13.0625,0 7.71875,0 c 0.473493,0 0.84375,0.370256 0.84375,0.84375 l 0,3.65625 -9.40625,0 0,-3.65625 c 0,-0.473495 0.370255,-0.84375 0.84375,-0.84375 z m 13.09375,0 7.6875,0 c 0.473493,0 0.84375,0.370256 0.84375,0.84375 l 0,3.65625 -9.375,0 0,-3.65625 c 0,-0.473495 0.370255,-0.84375 0.84375,-0.84375 z"
         style="font-size:medium;font-style:normal;font-variant:normal;font-weight:normal;font-stretch:normal;text-indent:0;text-align:start;text-decoration:none;line-height:normal;letter-spacing:normal;word-spacing:normal;text-transform:none;direction:ltr;block-progression:tb;writing-mode:lr-tb;text-anchor:start;baseline-shift:baseline;opacity:0.33000004;color:#000000;fill:#000000;fill-opacity:1;fill-rule:nonzero;stroke:none;stroke-width:0.30000001;marker:none;visibility:visible;display:inline;overflow:visible;enable-background:accumulate;font-family:Sans;-inkscape-font-specification:Sans" /><path
         fill="url(#SVGID_1_)"
         id="path11"
         d="M85.603,1.819c0-0.785-0.636-1.422-1.422-1.422H1.722C0.937,0.397,0.3,1.034,0.3,1.819v41.23   C0.3,66.605,19.396,85.7,42.951,85.7h41.23c0.785,0,1.422-0.696,1.422-1.481V1.819z" /><rect
         ry="0.99999905"
         y="12.000001"
         x="12"
         height="19.010096"
         width="62.301304"
         id="rect3790"
         style="opacity:0.668;fill:#000000;fill-opacity:1;stroke:#000000;stroke-width:0.30000000999999998;stroke-linejoin:bevel;stroke-miterlimit:4;stroke-opacity:1;stroke-dasharray:none" /><path
         id="path4226"
         d="M 12.96875 36.0625 C 12.414751 36.0625 11.96875 36.508501 11.96875 37.0625 L 11.96875 44.96875 C 11.96875 45.522749 12.414751 45.96875 12.96875 45.96875 L 20.6875 45.96875 C 21.2415 45.96875 21.6875 45.522749 21.6875 44.96875 L 21.6875 37.0625 C 21.6875 36.508501 21.2415 36.0625 20.6875 36.0625 L 12.96875 36.0625 z M 26.03125 36.0625 C 25.477251 36.0625 25.03125 36.508501 25.03125 37.0625 L 25.03125 44.96875 C 25.03125 45.522749 25.477251 45.96875 26.03125 45.96875 L 33.75 45.96875 C 34.304 45.96875 34.75 45.522749 34.75 44.96875 L 34.75 37.0625 C 34.75 36.508501 34.304 36.0625 33.75 36.0625 L 26.03125 36.0625 z M 39.125 36.0625 C 38.571 36.0625 38.125 36.508501 38.125 37.0625 L 38.125 44.96875 C 38.125 45.522749 38.571 45.96875 39.125 45.96875 L 46.8125 45.96875 C 47.366499 45.96875 47.8125 45.522749 47.8125 44.96875 L 47.8125 37.0625 C 47.8125 36.508501 47.366499 36.0625 46.8125 36.0625 L 39.125 36.0625 z M 52.1875 36.0625 C 51.6335 36.0625 51.1875 36.508501 51.1875 37.0625 L 51.1875 44.96875 C 51.1875 45.522749 51.6335 45.96875 52.1875 45.96875 L 59.90625 45.96875 C 60.460249 45.96875 60.90625 45.522749 60.90625 44.96875 L 60.90625 37.0625 C 60.90625 36.508501 60.460249 36.0625 59.90625 36.0625 L 52.1875 36.0625 z M 65.28125 36.0625 C 64.72725 36.0625 64.28125 36.508501 64.28125 37.0625 L 64.28125 44.96875 C 64.28125 45.522749 64.72725 45.96875 65.28125 45.96875 L 72.96875 45.96875 C 73.522749 45.96875 73.96875 45.522749 73.96875 44.96875 L 73.96875 37.0625 C 73.96875 36.508501 73.522749 36.0625 72.96875 36.0625 L 65.28125 36.0625 z M 12.96875 51 C 12.414751 51 11.96875 51.446 11.96875 52 L 11.96875 59.90625 C 11.96875 60.46025 12.414751 60.90625 12.96875 60.90625 L 20.6875 60.90625 C 21.2415 60.90625 21.6875 60.46025 21.6875 59.90625 L 21.6875 52 C 21.6875 51.446 21.2415 51 20.6875 51 L 12.96875 51 z M 26.03125 51 C 25.477251 51 25.03125 51.446 25.03125 52 L 25.03125 59.90625 C 25.03125 60.46025 25.477251 60.90625 26.03125 60.90625 L 33.75 60.90625 C 34.304 60.90625 34.75 60.46025 34.75 59.90625 L 34.75 52 C 34.75 51.446 34.304 51 33.75 51 L 26.03125 51 z M 39.125 51 C 38.571 51 38.125 51.446 38.125 52 L 38.125 59.90625 C 38.125 60.46025 38.571 60.90625 39.125 60.90625 L 46.8125 60.90625 C 47.366499 60.90625 47.8125 60.46025 47.8125 59.90625 L 47.8125 52 C 47.8125 51.446 47.366499 51 46.8125 51 L 39.125 51 z M 52.1875 51 C 51.6335 51 51.1875 51.446 51.1875 52 L 51.1875 59.90625 C 51.1875 60.46025 51.6335 60.90625 52.1875 60.90625 L 59.90625 60.90625 C 60.460249 60.90625 60.90625 60.46025 60.90625 59.90625 L 60.90625 52 C 60.90625 51.446 60.460249 51 59.90625 51 L 52.1875 51 z M 65.28125 51 C 64.72725 51 64.28125 51.446 64.28125 52 L 64.28125 59.90625 C 64.28125 60.46025 64.72725 60.90625 65.28125 60.90625 L 72.96875 60.90625 C 73.522749 60.90625 73.96875 60.46025 73.96875 59.90625 L 73.96875 52 C 73.96875 51.446 73.522749 51 72.96875 51 L 65.28125 51 z M 13.09375 65.9375 C 12.53975 65.9375 12.09375 66.383501 12.09375 66.9375 L 12.09375 72.5 C 13.233396 73.693455 14.448319 74.81992 15.71875 75.875 L 33.75 75.875 C 34.304 75.875 34.75 75.428999 34.75 74.875 L 34.75 66.9375 C 34.75 66.383501 34.304 65.9375 33.75 65.9375 L 13.09375 65.9375 z M 39.125 65.9375 C 38.571 65.9375 38.125 66.383501 38.125 66.9375 L 38.125 74.875 C 38.125 75.428999 38.571 75.875 39.125 75.875 L 46.8125 75.875 C 47.366499 75.875 47.8125 75.428999 47.8125 74.875 L 47.8125 66.9375 C 47.8125 66.383501 47.366499 65.9375 46.8125 65.9375 L 39.125 65.9375 z M 52.1875 65.9375 C 51.6335 65.9375 51.1875 66.383501 51.1875 66.9375 L 51.1875 74.875 C 51.1875 75.428999 51.6335 75.875 52.1875 75.875 L 59.90625 75.875 C 60.460249 75.875 60.90625 75.428999 60.90625 74.875 L 60.90625 66.9375 C 60.90625 66.383501 60.460249 65.9375 59.90625 65.9375 L 52.1875 65.9375 z M 65.28125 65.9375 C 64.72725 65.9375 64.28125 66.383501 64.28125 66.9375 L 64.28125 74.875 C 64.28125 75.428999 64.72725 75.875 65.28125 75.875 L 72.96875 75.875 C 73.522749 75.875 73.96875 75.428999 73.96875 74.875 L 73.96875 66.9375 C 73.96875 66.383501 73.522749 65.9375 72.96875 65.9375 L 65.28125 65.9375 z M 26.03125 80.875 C 25.523418 80.875 25.128487 81.260818 25.0625 81.75 C 28.119207 83.165716 31.353354 84.244921 34.75 84.90625 L 34.75 81.875 C 34.75 81.321 34.304 80.875 33.75 80.875 L 26.03125 80.875 z M 39.125 80.875 C 38.571 80.875 38.125 81.321 38.125 81.875 L 38.125 85.40625 C 39.712003 85.585325 41.302643 85.6875 42.9375 85.6875 L 47.8125 85.6875 L 47.8125 81.875 C 47.8125 81.321 47.366499 80.875 46.8125 80.875 L 39.125 80.875 z M 52.1875 80.875 C 51.6335 80.875 51.1875 81.321 51.1875 81.875 L 51.1875 85.6875 L 60.90625 85.6875 L 60.90625 81.875 C 60.90625 81.321 60.460249 80.875 59.90625 80.875 L 52.1875 80.875 z M 65.28125 80.875 C 64.72725 80.875 64.28125 81.321 64.28125 81.875 L 64.28125 85.6875 L 73.96875 85.6875 L 73.96875 81.875 C 73.96875 81.321 73.522749 80.875 72.96875 80.875 L 65.28125 80.875 z "
         style="opacity:0.33000003999999999;fill:#000000;fill-opacity:1;stroke:#000000;stroke-width:0.29999999999999999;stroke-miterlimit:4;stroke-opacity:1;stroke-dasharray:none" /><text
         sodipodi:linespacing="125%"
         id="text3924"
         y="27"
         x="15"
         style="font-size:16px;font-style:normal;font-weight:bold;line-height:125%;letter-spacing:0px;word-spacing:0px;fill:#ffffff;fill-opacity:1;stroke:none;font-family:Sans;-inkscape-font-specification:Sans Bold"
         xml:space="preserve"><tspan
           y="27"
           x="15"
           id="tspan3926"
           sodipodi:role="line">0.</tspan></text>
<g
         id="text3928"
         style="font-size:16px;font-style:normal;font-weight:bold;line-height:125%;letter-spacing:0px;word-spacing:0px;fill:#ff0000;fill-opacity:1;stroke:none;font-family:Sans;-inkscape-font-specification:Sans Bold"><path
           id="path3933"
           style=""
           d="m 22.359375,21.15625 c -7e-6,-1.458326 -0.138028,-2.484367 -0.414063,-3.078125 -0.27084,-0.598949 -0.729172,-0.898428 -1.375,-0.898438 -0.645838,10e-6 -1.106775,0.299489 -1.382812,0.898438 -0.276046,0.593758 -0.414066,1.619799 -0.414063,3.078125 -3e-6,1.473963 0.138017,2.513024 0.414063,3.117187 0.276037,0.604169 0.736974,0.906252 1.382812,0.90625 0.640619,2e-6 1.098952,-0.302081 1.375,-0.90625 0.276035,-0.604163 0.414056,-1.643224 0.414063,-3.117187 m 3.007812,0.02344 c -10e-6,1.932296 -0.416676,3.424482 -1.25,4.476563 -0.833341,1.046875 -2.015632,1.570312 -3.546875,1.570312 -1.536462,0 -2.721357,-0.523437 -3.554687,-1.570312 -0.833335,-1.052081 -1.250001,-2.544267 -1.25,-4.476563 -10e-7,-1.937492 0.416665,-3.429678 1.25,-4.476562 0.83333,-1.052072 2.018225,-1.578113 3.554687,-1.578125 1.531243,1.2e-5 2.713534,0.526053 3.546875,1.578125 0.833324,1.046884 1.24999,2.53907 1.25,4.476562" /><path
           id="path3935"
           style=""
           d="m 27.757812,23.976562 2.8125,0 0,3.023438 -2.8125,0 0,-3.023438" /></g><g
         style="font-size:16px;font-style:normal;font-weight:bold;line-height:125%;letter-spacing:0px;word-spacing:0px;fill:#ff0000;fill-opacity:1;stroke:none;font-family:Sans;-inkscape-font-specification:Sans Bold;filter:url(#filter3967)"
         id="g3937"><path
           d="m 22.359375,21.15625 c -7e-6,-1.458326 -0.138028,-2.484367 -0.414063,-3.078125 -0.27084,-0.598949 -0.729172,-0.898428 -1.375,-0.898438 -0.645838,10e-6 -1.106775,0.299489 -1.382812,0.898438 -0.276046,0.593758 -0.414066,1.619799 -0.414063,3.078125 -3e-6,1.473963 0.138017,2.513024 0.414063,3.117187 0.276037,0.604169 0.736974,0.906252 1.382812,0.90625 0.640619,2e-6 1.098952,-0.302081 1.375,-0.90625 0.276035,-0.604163 0.414056,-1.643224 0.414063,-3.117187 m 3.007812,0.02344 c -10e-6,1.932296 -0.416676,3.424482 -1.25,4.476563 -0.833341,1.046875 -2.015632,1.570312 -3.546875,1.570312 -1.536462,0 -2.721357,-0.523437 -3.554687,-1.570312 -0.833335,-1.052081 -1.250001,-2.544267 -1.25,-4.476563 -10e-7,-1.937492 0.416665,-3.429678 1.25,-4.476562 0.83333,-1.052072 2.018225,-1.578113 3.554687,-1.578125 1.531243,1.2e-5 2.713534,0.526053 3.546875,1.578125 0.833324,1.046884 1.24999,2.53907 1.25,4.476562"
           style=""
           id="path3939" /><path
           d="m 27.757812,23.976562 2.8125,0 0,3.023438 -2.8125,0 0,-3.023438"
           style=""
           id="path3941" /></g></g><path
       inkscape:connector-curvature="0"
       id="path4016"
       d="m 12.96875,35.90625 c -0.634505,0 -1.15625,0.521745 -1.15625,1.15625 l 0,7.90625 c 0,0.634505 0.521745,1.15625 1.15625,1.15625 l 7.71875,0 c 0.634506,0 1.15625,-0.521745 1.15625,-1.15625 l 0,-7.90625 c 0,-0.634505 -0.521744,-1.15625 -1.15625,-1.15625 l -7.71875,0 z m 13.0625,0 c -0.634505,0 -1.15625,0.521745 -1.15625,1.15625 l 0,7.90625 c 0,0.634505 0.521745,1.15625 1.15625,1.15625 l 7.71875,0 c 0.634506,0 1.15625,-0.521745 1.15625,-1.15625 l 0,-7.90625 c 0,-0.634505 -0.521744,-1.15625 -1.15625,-1.15625 l -7.71875,0 z m 13.09375,0 c -0.634506,0 -1.15625,0.521745 -1.15625,1.15625 l 0,7.90625 c 0,0.634505 0.521744,1.15625 1.15625,1.15625 l 7.6875,0 c 0.634505,0 1.15625,-0.521745 1.15625,-1.15625 l 0,-7.90625 c 0,-0.634505 -0.521745,-1.15625 -1.15625,-1.15625 l -7.6875,0 z m 13.0625,0 c -0.634506,0 -1.15625,0.521745 -1.15625,1.15625 l 0,7.90625 c 0,0.634505 0.521744,1.15625 1.15625,1.15625 l 7.71875,0 c 0.634505,0 1.15625,-0.521745 1.15625,-1.15625 l 0,-7.90625 c 0,-0.634505 -0.521745,-1.15625 -1.15625,-1.15625 l -7.71875,0 z m 13.09375,0 c -0.634506,0 -1.15625,0.521745 -1.15625,1.15625 l 0,7.90625 c 0,0.634505 0.521744,1.15625 1.15625,1.15625 l 7.6875,0 c 0.634505,0 1.15625,-0.521745 1.15625,-1.15625 l 0,-7.90625 c 0,-0.634505 -0.521745,-1.15625 -1.15625,-1.15625 l -7.6875,0 z m -52.3125,0.3125 7.71875,0 c 0.473494,0 0.84375,0.370257 0.84375,0.84375 l 0,7.90625 c 0,0.473493 -0.370256,0.84375 -0.84375,0.84375 l -7.71875,0 c -0.473493,0 -0.84375,-0.370257 -0.84375,-0.84375 l 0,-7.90625 c 0,-0.473493 0.370257,-0.84375 0.84375,-0.84375 z m 13.0625,0 7.71875,0 c 0.473494,0 0.84375,0.370257 0.84375,0.84375 l 0,7.90625 c 0,0.473493 -0.370256,0.84375 -0.84375,0.84375 l -7.71875,0 c -0.473493,0 -0.84375,-0.370257 -0.84375,-0.84375 l 0,-7.90625 c 0,-0.473493 0.370257,-0.84375 0.84375,-0.84375 z m 13.09375,0 7.6875,0 c 0.473493,0 0.84375,0.370257 0.84375,0.84375 l 0,7.90625 c 0,0.473493 -0.370257,0.84375 -0.84375,0.84375 l -7.6875,0 c -0.473494,0 -0.84375,-0.370257 -0.84375,-0.84375 l 0,-7.90625 c 0,-0.473493 0.370256,-0.84375 0.84375,-0.84375 z m 13.0625,0 7.71875,0 c 0.473493,0 0.84375,0.370257 0.84375,0.84375 l 0,7.90625 c 0,0.473493 -0.370257,0.84375 -0.84375,0.84375 l -7.71875,0 c -0.473494,0 -0.84375,-0.370257 -0.84375,-0.84375 l 0,-7.90625 c 0,-0.473493 0.370256,-0.84375 0.84375,-0.84375 z m 13.09375,0 7.6875,0 c 0.473493,0 0.84375,0.370257 0.84375,0.84375 l 0,7.90625 c 0,0.473493 -0.370257,0.84375 -0.84375,0.84375 l -7.6875,0 c -0.473494,0 -0.84375,-0.370257 -0.84375,-0.84375 l 0,-7.90625 c 0,-0.473493 0.370256,-0.84375 0.84375,-0.84375 z m -52.3125,14.625 c -0.634505,0 -1.15625,0.521744 -1.15625,1.15625 l 0,7.90625 c 0,0.634506 0.521745,1.15625 1.15625,1.15625 l 7.71875,0 c 0.634505,0 1.15625,-0.521745 1.15625,-1.15625 l 0,-7.90625 c 0,-0.634505 -0.521745,-1.15625 -1.15625,-1.15625 l -7.71875,0 z m 13.0625,0 C 25.396745,50.84375 24.875,51.365494 24.875,52 l 0,7.90625 c 0,0.634506 0.521745,1.15625 1.15625,1.15625 l 7.71875,0 c 0.634505,0 1.15625,-0.521745 1.15625,-1.15625 l 0,-7.90625 c 0,-0.634505 -0.521745,-1.15625 -1.15625,-1.15625 l -7.71875,0 z m 13.09375,0 c -0.634505,0 -1.15625,0.521745 -1.15625,1.15625 l 0,7.90625 c 0,0.634505 0.521745,1.15625 1.15625,1.15625 l 7.6875,0 c 0.634505,0 1.15625,-0.521744 1.15625,-1.15625 l 0,-7.90625 c 0,-0.634506 -0.521745,-1.15625 -1.15625,-1.15625 l -7.6875,0 z m 13.0625,0 c -0.634505,0 -1.15625,0.521745 -1.15625,1.15625 l 0,7.90625 c 0,0.634505 0.521745,1.15625 1.15625,1.15625 l 7.71875,0 c 0.634505,0 1.15625,-0.521744 1.15625,-1.15625 l 0,-7.90625 c 0,-0.634506 -0.521745,-1.15625 -1.15625,-1.15625 l -7.71875,0 z m 13.09375,0 C 64.646745,50.84375 64.125,51.365495 64.125,52 l 0,7.90625 c 0,0.634505 0.521745,1.15625 1.15625,1.15625 l 7.6875,0 c 0.634505,0 1.15625,-0.521744 1.15625,-1.15625 L 74.125,52 c 0,-0.634506 -0.521745,-1.15625 -1.15625,-1.15625 l -7.6875,0 z m -52.3125,0.3125 7.71875,0 c 0.473495,0 0.84375,0.370255 0.84375,0.84375 l 0,7.90625 c 0,0.473495 -0.370255,0.84375 -0.84375,0.84375 l -7.71875,0 C 12.495257,60.75 12.125,60.379744 12.125,59.90625 L 12.125,52 c 0,-0.473494 0.370257,-0.84375 0.84375,-0.84375 z m 13.0625,0 7.71875,0 c 0.473495,0 0.84375,0.370255 0.84375,0.84375 l 0,7.90625 c 0,0.473495 -0.370255,0.84375 -0.84375,0.84375 l -7.71875,0 c -0.473493,0 -0.84375,-0.370256 -0.84375,-0.84375 l 0,-7.90625 c 0,-0.473494 0.370257,-0.84375 0.84375,-0.84375 z m 13.09375,0 7.6875,0 c 0.473493,0 0.84375,0.370256 0.84375,0.84375 l 0,7.90625 c 0,0.473494 -0.370257,0.84375 -0.84375,0.84375 l -7.6875,0 c -0.473495,0 -0.84375,-0.370255 -0.84375,-0.84375 l 0,-7.90625 c 0,-0.473495 0.370255,-0.84375 0.84375,-0.84375 z m 13.0625,0 7.71875,0 c 0.473493,0 0.84375,0.370256 0.84375,0.84375 l 0,7.90625 c 0,0.473494 -0.370257,0.84375 -0.84375,0.84375 l -7.71875,0 c -0.473495,0 -0.84375,-0.370255 -0.84375,-0.84375 l 0,-7.90625 c 0,-0.473495 0.370255,-0.84375 0.84375,-0.84375 z m 13.09375,0 7.6875,0 c 0.473493,0 0.84375,0.370256 0.84375,0.84375 l 0,7.90625 c 0,0.473494 -0.370257,0.84375 -0.84375,0.84375 l -7.6875,0 c -0.473495,0 -0.84375,-0.370255 -0.84375,-0.84375 l 0,-7.90625 c 0,-0.473495 0.370255,-0.84375 0.84375,-0.84375 z m -52.1875,14.625 c -0.634506,0 -1.15625,0.521745 -1.15625,1.15625 l 0,5.5625 0,0.0625 L 12,72.59375 c 1.143861,1.197869 2.350359,2.347673 3.625,3.40625 l 0.03125,0.03125 0.0625,0 18.03125,0 c 0.634506,0 1.15625,-0.521745 1.15625,-1.15625 l 0,-7.9375 c 0,-0.634505 -0.521744,-1.15625 -1.15625,-1.15625 l -20.65625,0 z m 26.03125,0 c -0.634506,0 -1.15625,0.521745 -1.15625,1.15625 l 0,7.9375 c 0,0.634505 0.521744,1.15625 1.15625,1.15625 l 7.6875,0 c 0.634505,0 1.15625,-0.521745 1.15625,-1.15625 l 0,-7.9375 c 0,-0.634505 -0.521745,-1.15625 -1.15625,-1.15625 l -7.6875,0 z m 13.0625,0 c -0.634506,0 -1.15625,0.521745 -1.15625,1.15625 l 0,7.9375 c 0,0.634505 0.521744,1.15625 1.15625,1.15625 l 7.71875,0 c 0.634505,0 1.15625,-0.521745 1.15625,-1.15625 l 0,-7.9375 c 0,-0.634505 -0.521745,-1.15625 -1.15625,-1.15625 l -7.71875,0 z m 13.09375,0 c -0.634506,0 -1.15625,0.521745 -1.15625,1.15625 l 0,7.9375 c 0,0.634505 0.521744,1.15625 1.15625,1.15625 l 7.6875,0 c 0.634505,0 1.15625,-0.521745 1.15625,-1.15625 l 0,-7.9375 c 0,-0.634505 -0.521745,-1.15625 -1.15625,-1.15625 l -7.6875,0 z m -52.1875,0.3125 20.65625,0 c 0.473494,0 0.84375,0.370257 0.84375,0.84375 l 0,7.9375 c 0,0.473493 -0.370256,0.84375 -0.84375,0.84375 l -17.96875,0 c -1.231238,-1.024573 -2.423701,-2.095217 -3.53125,-3.25 l 0,-5.53125 c 0,-0.473493 0.370256,-0.84375 0.84375,-0.84375 z m 26.03125,0 7.6875,0 c 0.473493,0 0.84375,0.370257 0.84375,0.84375 l 0,7.9375 c 0,0.473493 -0.370257,0.84375 -0.84375,0.84375 l -7.6875,0 c -0.473494,0 -0.84375,-0.370257 -0.84375,-0.84375 l 0,-7.9375 c 0,-0.473493 0.370256,-0.84375 0.84375,-0.84375 z m 13.0625,0 7.71875,0 c 0.473493,0 0.84375,0.370257 0.84375,0.84375 l 0,7.9375 c 0,0.473493 -0.370257,0.84375 -0.84375,0.84375 l -7.71875,0 c -0.473494,0 -0.84375,-0.370257 -0.84375,-0.84375 l 0,-7.9375 c 0,-0.473493 0.370256,-0.84375 0.84375,-0.84375 z m 13.09375,0 7.6875,0 c 0.473493,0 0.84375,0.370257 0.84375,0.84375 l 0,7.9375 c 0,0.473493 -0.370257,0.84375 -0.84375,0.84375 l -7.6875,0 c -0.473494,0 -0.84375,-0.370257 -0.84375,-0.84375 l 0,-7.9375 c 0,-0.473493 0.370256,-0.84375 0.84375,-0.84375 z m -39.25,14.625 c -0.583806,0 -1.04981,0.442595 -1.125,1 l 0,0.125 L 25,81.875 c 3.066941,1.420456 6.309588,2.523734 9.71875,3.1875 l 0.1875,0.03125 0,-0.1875 0,-3.03125 c 0,-0.634505 -0.521745,-1.15625 -1.15625,-1.15625 l -7.71875,0 z m 13.09375,0 c -0.634505,0 -1.15625,0.521745 -1.15625,1.15625 l 0,3.53125 0,0.125 0.125,0.03125 c 1.591783,0.179614 3.202643,0.28125 4.84375,0.28125 l 4.875,0 0.15625,0 0,-0.15625 0,-3.8125 c 0,-0.634506 -0.521745,-1.15625 -1.15625,-1.15625 l -7.6875,0 z m 13.0625,0 c -0.634505,0 -1.15625,0.521745 -1.15625,1.15625 l 0,3.8125 0,0.15625 0.15625,0 9.71875,0 0.15625,0 0,-0.15625 0,-3.8125 c 0,-0.634506 -0.521745,-1.15625 -1.15625,-1.15625 l -7.71875,0 z m 13.09375,0 c -0.634505,0 -1.15625,0.521745 -1.15625,1.15625 l 0,3.8125 0,0.15625 0.15625,0 9.6875,0 0.15625,0 0,-0.15625 0,-3.8125 c 0,-0.634506 -0.521745,-1.15625 -1.15625,-1.15625 l -7.6875,0 z m -39.25,0.3125 7.71875,0 c 0.473495,0 0.84375,0.370255 0.84375,0.84375 l 0,2.8125 c -3.246841,-0.648674 -6.346365,-1.656448 -9.28125,-3 0.105709,-0.347224 0.338632,-0.65625 0.71875,-0.65625 z m 13.09375,0 7.6875,0 c 0.473493,0 0.84375,0.370256 0.84375,0.84375 l 0,3.65625 -4.71875,0 c -1.586176,0 -3.115089,-0.111278 -4.65625,-0.28125 l 0,-3.375 c 0,-0.473495 0.370255,-0.84375 0.84375,-0.84375 z m 13.0625,0 7.71875,0 c 0.473493,0 0.84375,0.370256 0.84375,0.84375 l 0,3.65625 -9.40625,0 0,-3.65625 c 0,-0.473495 0.370255,-0.84375 0.84375,-0.84375 z m 13.09375,0 7.6875,0 c 0.473493,0 0.84375,0.370256 0.84375,0.84375 l 0,3.65625 -9.375,0 0,-3.65625 c 0,-0.473495 0.370255,-0.84375 0.84375,-0.84375 z"
       style="font-size:medium;font-style:normal;font-variant:normal;font-weight:normal;font-stretch:normal;text-indent:0;text-align:start;text-decoration:none;line-height:normal;letter-spacing:normal;word-spacing:normal;text-transform:none;direction:ltr;block-progression:tb;writing-mode:lr-tb;text-anchor:start;baseline-shift:baseline;opacity:0.33000004;color:#000000;fill:#000000;fill-opacity:1;fill-rule:nonzero;stroke:none;stroke-width:0.30000001;marker:none;visibility:visible;display:inline;overflow:visible;enable-background:accumulate;font-family:Sans;-inkscape-font-specification:Sans" /><path
       id="path4018"
       d="m 85.603,1.819 c 0,-0.785 -0.636,-1.422 -1.422,-1.422 H 1.722 C 0.937,0.397 0.3,1.034 0.3,1.819 v 41.23 C 0.3,66.605 19.396,85.7 42.951,85.7 h 41.23 c 0.785,0 1.422,-0.696 1.422,-1.481 v -82.4 z"
       style="fill:url(#linearGradient4088)"
       inkscape:connector-curvature="0" /><path
       id="path4022"
       d="m 12.96875,36.0625 c -0.553999,0 -1,0.446001 -1,1 l 0,7.90625 c 0,0.553999 0.446001,1 1,1 l 7.71875,0 c 0.554,0 1,-0.446001 1,-1 l 0,-7.90625 c 0,-0.553999 -0.446,-1 -1,-1 l -7.71875,0 z m 13.0625,0 c -0.553999,0 -1,0.446001 -1,1 l 0,7.90625 c 0,0.553999 0.446001,1 1,1 l 7.71875,0 c 0.554,0 1,-0.446001 1,-1 l 0,-7.90625 c 0,-0.553999 -0.446,-1 -1,-1 l -7.71875,0 z m 13.09375,0 c -0.554,0 -1,0.446001 -1,1 l 0,7.90625 c 0,0.553999 0.446,1 1,1 l 7.6875,0 c 0.553999,0 1,-0.446001 1,-1 l 0,-7.90625 c 0,-0.553999 -0.446001,-1 -1,-1 l -7.6875,0 z m 13.0625,0 c -0.554,0 -1,0.446001 -1,1 l 0,7.90625 c 0,0.553999 0.446,1 1,1 l 7.71875,0 c 0.553999,0 1,-0.446001 1,-1 l 0,-7.90625 c 0,-0.553999 -0.446001,-1 -1,-1 l -7.71875,0 z m 13.09375,0 c -0.554,0 -1,0.446001 -1,1 l 0,7.90625 c 0,0.553999 0.446,1 1,1 l 7.6875,0 c 0.553999,0 1,-0.446001 1,-1 l 0,-7.90625 c 0,-0.553999 -0.446001,-1 -1,-1 l -7.6875,0 z M 12.96875,51 c -0.553999,0 -1,0.446 -1,1 l 0,7.90625 c 0,0.554 0.446001,1 1,1 l 7.71875,0 c 0.554,0 1,-0.446 1,-1 l 0,-7.90625 c 0,-0.554 -0.446,-1 -1,-1 l -7.71875,0 z m 13.0625,0 c -0.553999,0 -1,0.446 -1,1 l 0,7.90625 c 0,0.554 0.446001,1 1,1 l 7.71875,0 c 0.554,0 1,-0.446 1,-1 L 34.75,52 c 0,-0.554 -0.446,-1 -1,-1 l -7.71875,0 z M 39.125,51 c -0.554,0 -1,0.446 -1,1 l 0,7.90625 c 0,0.554 0.446,1 1,1 l 7.6875,0 c 0.553999,0 1,-0.446 1,-1 l 0,-7.90625 c 0,-0.554 -0.446001,-1 -1,-1 l -7.6875,0 z m 13.0625,0 c -0.554,0 -1,0.446 -1,1 l 0,7.90625 c 0,0.554 0.446,1 1,1 l 7.71875,0 c 0.553999,0 1,-0.446 1,-1 l 0,-7.90625 c 0,-0.554 -0.446001,-1 -1,-1 l -7.71875,0 z m 13.09375,0 c -0.554,0 -1,0.446 -1,1 l 0,7.90625 c 0,0.554 0.446,1 1,1 l 7.6875,0 c 0.553999,0 1,-0.446 1,-1 l 0,-7.90625 c 0,-0.554 -0.446001,-1 -1,-1 l -7.6875,0 z m -52.1875,14.9375 c -0.554,0 -1,0.446001 -1,1 l 0,5.5625 c 1.139646,1.193455 2.354569,2.31992 3.625,3.375 l 18.03125,0 c 0.554,0 1,-0.446001 1,-1 l 0,-7.9375 c 0,-0.553999 -0.446,-1 -1,-1 l -20.65625,0 z m 26.03125,0 c -0.554,0 -1,0.446001 -1,1 l 0,7.9375 c 0,0.553999 0.446,1 1,1 l 7.6875,0 c 0.553999,0 1,-0.446001 1,-1 l 0,-7.9375 c 0,-0.553999 -0.446001,-1 -1,-1 l -7.6875,0 z m 13.0625,0 c -0.554,0 -1,0.446001 -1,1 l 0,7.9375 c 0,0.553999 0.446,1 1,1 l 7.71875,0 c 0.553999,0 1,-0.446001 1,-1 l 0,-7.9375 c 0,-0.553999 -0.446001,-1 -1,-1 l -7.71875,0 z m 13.09375,0 c -0.554,0 -1,0.446001 -1,1 l 0,7.9375 c 0,0.553999 0.446,1 1,1 l 7.6875,0 c 0.553999,0 1,-0.446001 1,-1 l 0,-7.9375 c 0,-0.553999 -0.446001,-1 -1,-1 l -7.6875,0 z m -39.25,14.9375 c -0.507832,0 -0.902763,0.385818 -0.96875,0.875 3.056707,1.415716 6.290854,2.494921 9.6875,3.15625 l 0,-3.03125 c 0,-0.554 -0.446,-1 -1,-1 l -7.71875,0 z m 13.09375,0 c -0.554,0 -1,0.446 -1,1 l 0,3.53125 c 1.587003,0.179075 3.177643,0.28125 4.8125,0.28125 l 4.875,0 0,-3.8125 c 0,-0.554 -0.446001,-1 -1,-1 l -7.6875,0 z m 13.0625,0 c -0.554,0 -1,0.446 -1,1 l 0,3.8125 9.71875,0 0,-3.8125 c 0,-0.554 -0.446001,-1 -1,-1 l -7.71875,0 z m 13.09375,0 c -0.554,0 -1,0.446 -1,1 l 0,3.8125 9.6875,0 0,-3.8125 c 0,-0.554 -0.446001,-1 -1,-1 l -7.6875,0 z"
       style="opacity:0.33000004;fill:#000000;fill-opacity:1;stroke:#000000;stroke-width:0.30000001;stroke-miterlimit:4;stroke-opacity:1;stroke-dasharray:none"
       inkscape:connector-curvature="0" /><path
       inkscape:connector-curvature="0"
       style="fill:url(#linearGradient4095);opacity:0.47540983999999997;fill-opacity:1"
       d="m 85.603,1.819 c 0,-0.785 -0.636,-1.422 -1.422,-1.422 H 1.722 C 0.937,0.397 0.3,1.034 0.3,1.819 v 41.23 C 0.3,66.605 19.396,85.7 42.951,85.7 h 41.23 c 0.785,0 1.422,-0.696 1.422,-1.481 v -82.4 z"
       id="path4091" /><rect
       ry="0.99999905"
       y="12.000001"
       x="12"
       height="19.010096"
       width="62.301304"
       id="rect4020"
       style="opacity:0.66799999;fill:#000000;fill-opacity:1;stroke:#000000;stroke-width:0.30000001;stroke-linejoin:bevel;stroke-miterlimit:4;stroke-opacity:1;stroke-dasharray:none" /><text
       sodipodi:linespacing="125%"
       id="text4024"
       y="27"
       x="15"
       style="font-size:16px;font-style:normal;font-weight:bold;line-height:125%;letter-spacing:0px;word-spacing:0px;fill:#ffffff;fill-opacity:1;stroke:none;font-family:Sans;-inkscape-font-specification:Sans Bold"
       xml:space="preserve"><tspan
         y="27"
         x="15"
         id="tspan4026"
         sodipodi:role="line">0.</tspan></text>
<rect
       style="opacity:0.66799998999999999;fill:url(#linearGradient4195);fill-opacity:1;stroke:#000000;stroke-width:0.30000000999999998;stroke-linejoin:bevel;stroke-miterlimit:4;stroke-opacity:1;stroke-dasharray:none"
       id="rect4187"
       width="62.301304"
       height="19.010096"
       x="12"
       y="12.000001"
       ry="0.99999905" /><g
       id="g4028"
       style="font-size:16px;font-style:normal;font-weight:bold;line-height:125%;letter-spacing:0px;word-spacing:0px;fill:#ff0000;fill-opacity:1;stroke:none;font-family:Sans;-inkscape-font-specification:Sans Bold"><path
         id="path4030"
         d="m 22.359375,21.15625 c -7e-6,-1.458326 -0.138028,-2.484367 -0.414063,-3.078125 -0.27084,-0.598949 -0.729172,-0.898428 -1.375,-0.898438 -0.645838,10e-6 -1.106775,0.299489 -1.382812,0.898438 -0.276046,0.593758 -0.414066,1.619799 -0.414063,3.078125 -3e-6,1.473963 0.138017,2.513024 0.414063,3.117187 0.276037,0.604169 0.736974,0.906252 1.382812,0.90625 0.640619,2e-6 1.098952,-0.302081 1.375,-0.90625 0.276035,-0.604163 0.414056,-1.643224 0.414063,-3.117187 m 3.007812,0.02344 c -10e-6,1.932296 -0.416676,3.424482 -1.25,4.476563 -0.833341,1.046875 -2.015632,1.570312 -3.546875,1.570312 -1.536462,0 -2.721357,-0.523437 -3.554687,-1.570312 -0.833335,-1.052081 -1.250001,-2.544267 -1.25,-4.476563 -10e-7,-1.937492 0.416665,-3.429678 1.25,-4.476562 0.83333,-1.052072 2.018225,-1.578113 3.554687,-1.578125 1.531243,1.2e-5 2.713534,0.526053 3.546875,1.578125 0.833324,1.046884 1.24999,2.53907 1.25,4.476562"
         inkscape:connector-curvature="0" /><path
         id="path4032"
         d="m 27.757812,23.976562 2.8125,0 0,3.023438 -2.8125,0 0,-3.023438"
         inkscape:connector-curvature="0" /></g><g
       style="font-size:16px;font-style:normal;font-weight:bold;line-height:125%;letter-spacing:0px;word-spacing:0px;fill:#ff0000;fill-opacity:1;stroke:none;filter:url(#filter3967);font-family:Sans;-inkscape-font-specification:Sans Bold"
       id="g4034"><path
         d="m 22.359375,21.15625 c -7e-6,-1.458326 -0.138028,-2.484367 -0.414063,-3.078125 -0.27084,-0.598949 -0.729172,-0.898428 -1.375,-0.898438 -0.645838,10e-6 -1.106775,0.299489 -1.382812,0.898438 -0.276046,0.593758 -0.414066,1.619799 -0.414063,3.078125 -3e-6,1.473963 0.138017,2.513024 0.414063,3.117187 0.276037,0.604169 0.736974,0.906252 1.382812,0.90625 0.640619,2e-6 1.098952,-0.302081 1.375,-0.90625 0.276035,-0.604163 0.414056,-1.643224 0.414063,-3.117187 m 3.007812,0.02344 c -10e-6,1.932296 -0.416676,3.424482 -1.25,4.476563 -0.833341,1.046875 -2.015632,1.570312 -3.546875,1.570312 -1.536462,0 -2.721357,-0.523437 -3.554687,-1.570312 -0.833335,-1.052081 -1.250001,-2.544267 -1.25,-4.476563 -10e-7,-1.937492 0.416665,-3.429678 1.25,-4.476562 0.83333,-1.052072 2.018225,-1.578113 3.554687,-1.578125 1.531243,1.2e-5 2.713534,0.526053 3.546875,1.578125 0.833324,1.046884 1.24999,2.53907 1.25,4.476562"
         id="path4036"
         inkscape:connector-curvature="0" /><path
         d="m 27.757812,23.976562 2.8125,0 0,3.023438 -2.8125,0 0,-3.023438"
         id="path4038"
         inkscape:connector-curvature="0" /></g></g></svg>